<svg width="48" height="48" xmlns="http://www.w3.org/2000/svg">
 <title/>

 <desc/>
 <g>
  <title>background</title>
  <rect fill="none" id="canvas_background" height="402" width="582" y="-1" x="-1"/>
 </g>
 <g>
  <title>Layer 1</title>
  <path id="eye" fill="#c2c6ca" d="m20,23c0,2.21 1.79,4 4,4c2.21,0 4,-1.79 4,-4c0,-2.21 -1.79,-4 -4,-4c-2.21,0 -4,1.79 -4,4l0,0zm27,0c-5.094,-6.37 -13.277,-11.5 -22.5,-11.5c-9.225,0 -17.405,5.13 -22.499,11.5l0.042,0c5.085,6.37 13.25,11.5 22.457,11.5c9.206,0 17.373,-5.13 22.458,-11.5l0.042,0zm-31,0c0,-4.418 3.582,-8 8,-8c4.418,0 8,3.582 8,8c0,4.418 -3.582,8 -8,8c-4.418,0 -8,-3.582 -8,-8l0,0z"/>
 </g>
</svg>