<svg xmlns="http://www.w3.org/2000/svg" viewBox="0 0 34.84 34.84"><defs><style>.cls-1{fill:#fff;}</style></defs><g id="Capa_2" data-name="Capa 2"><g id="Capa_1-2" data-name="Capa 1"><path class="cls-1" d="M28.11,0H6.73A6.74,6.74,0,0,0,0,6.73V28.11a6.74,6.74,0,0,0,6.73,6.73H28.11a6.74,6.74,0,0,0,6.73-6.73V6.73A6.74,6.74,0,0,0,28.11,0ZM30,4h.77V9.92l-5.88,0L24.9,4ZM12.45,13.85a6.1,6.1,0,0,1,9.94,0,4.38,4.38,0,0,1,.37.58,6.13,6.13,0,1,1-10.68,0A4.38,4.38,0,0,1,12.45,13.85Zm19,14.26a3.35,3.35,0,0,1-3.34,3.34H6.73a3.35,3.35,0,0,1-3.34-3.34V13.85h5.2a8.06,8.06,0,0,0-.33,1,9.21,9.21,0,0,0-.37,2.59,9.53,9.53,0,1,0,19.06,0,9.21,9.21,0,0,0-.37-2.59,10.24,10.24,0,0,0-.33-1h5.2V28.11Z"/></g></g></svg>