<svg width="90" height="90" xmlns="http://www.w3.org/2000/svg">

 <g>
  <title>background</title>
  <rect fill="none" id="canvas_background" height="402" width="582" y="-1" x="-1"/>
 </g>
 <g>
  <title>Layer 1</title>
  <path fill="#ffffff" id="WhatsApp" d="m90,43.8c0,24.2 -19.8,43.8 -44.2,43.8c-7.7,0 -15,-2 -21.4,-5.5l-24.4,7.9l8,-23.5c-4,-6.6 -6.3,-14.4 -6.3,-22.6c-0.1,-24.3 19.7,-43.9 44.1,-43.9c24.4,0 44.2,19.6 44.2,43.8zm-44.2,-36.8c-20.5,0 -37.1,16.5 -37.1,36.8c0,8.1 2.6,15.5 7.1,21.6l-4.6,13.7l14.3,-4.5c5.9,3.9 12.9,6.1 20.4,6.1c20.4,0 37.1,-16.5 37.1,-36.9s-16.7,-36.8 -37.2,-36.8zm22.3,46.9c-0.3,-0.4 -1,-0.7 -2.1,-1.3c-1.1,-0.5 -6.4,-3.1 -7.4,-3.5c-1,-0.4 -1.7,-0.5 -2.4,0.5c-0.7,1.1 -2.8,3.5 -3.4,4.2c-0.6,0.7 -1.3,0.8 -2.3,0.3c-1.1,-0.5 -4.6,-1.7 -8.7,-5.3c-3.2,-2.8 -5.4,-6.4 -6,-7.4c-0.6,-1.1 -0.1,-1.7 0.5,-2.2c0.5,-0.5 1.1,-1.3 1.6,-1.9c0.5,-0.6 0.7,-1.1 1.1,-1.8c0.4,-0.7 0.2,-1.3 -0.1,-1.9c-0.3,-0.5 -2.4,-5.8 -3.3,-8c-0.9,-2.1 -1.8,-1.8 -2.4,-1.8c-0.6,0 -1.4,-0.1 -2.1,-0.1s-1.9,0.3 -2.9,1.3c-1,1.1 -3.8,3.7 -3.8,9c0,5.3 3.9,10.4 4.4,11.1c0.5,0.7 7.5,11.9 18.5,16.2c11,4.3 11,2.9 13,2.7c2,-0.2 6.4,-2.6 7.3,-5.1c0.8,-2.4 0.8,-4.5 0.5,-5z"/>
 </g>
</svg>