<svg height="512pt" viewBox="0 0 512 512.00075" width="512pt" xmlns="http://www.w3.org/2000/svg"><path d="m150 0c-17.902344 0-33.996094 7.882812-45 20.355469-11.003906-12.472657-27.097656-20.355469-45-20.355469-33.082031 0-60 26.917969-60 60v346c0 58.449219 47.101562 106 105 106s105-47.550781 105-106v-346c0-33.082031-26.914062-60-60-60zm0 30c16.542969 0 30 13.457031 30 30v309.117188c-8.886719-5.164063-19.15625-8.117188-30-8.117188-10.925781 0-21.167969 2.949219-30 8.074219v-309.074219c0-16.542969 13.457031-30 30-30zm-90 0c16.542969 0 30 13.457031 30 30v309.074219c-8.832031-5.125-19.074219-8.074219-30-8.074219-10.839844 0-21.113281 2.953125-30 8.117188v-309.117188c0-16.542969 13.457031-30 30-30zm45 452c-38.285156 0-69.945312-29.226562-74.433594-66.816406 2.730469-13.898438 15.09375-24.183594 29.433594-24.183594 16.542969 0 30 13.457031 30 30v15c0 8.285156 6.714844 15 15 15s15-6.714844 15-15v-15c0-16.542969 13.457031-30 30-30 14.34375 0 26.703125 10.285156 29.433594 24.183594-4.488282 37.589844-36.144532 66.816406-74.433594 66.816406zm0 0"/><path d="m479.761719 135c24.199219-21.722656 31.5-55.292969 31.84375-56.921875 1.566406-7.480469-2.742188-14.949219-10.007813-17.332031-1.582031-.515625-34.308594-10.980469-65.226562-.878906-6.714844-31.820313-32.125-54.929688-33.363282-56.042969-5.695312-5.097657-14.316406-5.097657-20.011718 0-1.242188 1.113281-26.652344 24.222656-33.367188 56.042969-30.914062-10.097657-63.644531.363281-65.226562.878906-7.265625 2.382812-11.574219 9.851562-10.007813 17.332031.34375 1.628906 7.644531 35.199219 31.84375 56.921875-24.199219 21.726562-31.5 55.292969-31.84375 56.921875-1.566406 7.484375 2.742188 14.949219 10.007813 17.332031 17.261718 5.65625 43.832031 7.867188 65.226562.878906 6.714844 31.820313 32.125 54.933594 33.363282 56.042969 2.847656 2.550781 6.429687 3.824219 10.007812 3.824219s7.15625-1.273438 10.003906-3.824219c1.242188-1.109375 26.652344-24.222656 33.367188-56.042969 21.773437 7.113282 48.519531 4.59375 65.226562-.878906 7.265625-2.382812 11.574219-9.847656 10.003906-17.332031-.339843-1.628906-7.640624-35.195313-31.839843-56.921875zm-2.285157-48.789062c-4.4375 10.605468-12.316406 24.445312-25.011718 31.777343 0 0 0 0-.003906.003907-12.746094 7.359374-28.652344 7.261718-40.035157 5.792968 4.425781-10.597656 12.289063-24.417968 25.035157-31.777344 12.742187-7.355468 28.628906-7.261718 40.015624-5.796874zm-84.476562-48.777344c6.964844 9.128906 15 22.847656 15 37.566406 0 .683594-.023438 1.375-.058594 2.070312-6.054687 5.863282-10.976562 12.445313-14.941406 18.960938-3.964844-6.515625-8.882812-13.09375-14.941406-18.960938-.035156-.695312-.058594-1.386718-.058594-2.070312 0-14.71875 8.039062-28.445312 15-37.566406zm-44.460938 54.578125c12.75 7.359375 20.613282 21.183593 25.035157 31.773437-11.390625 1.46875-27.289063 1.566406-40.035157-5.792968-12.742187-7.355469-20.605468-21.164063-25.027343-31.753907 11.402343-1.460937 27.328125-1.558593 40.027343 5.773438zm-40.015624 91.777343c4.4375-10.605468 12.316406-24.449218 25.015624-31.777343.59375-.34375 1.207032-.667969 1.828126-.988281 8.105468 2.3125 16.265624 3.289062 23.890624 3.464843-3.660156 6.691407-6.898437 14.238281-8.953124 22.414063-.585938.378906-1.171876.746094-1.765626 1.089844-12.742187 7.355468-28.632812 7.261718-40.015624 5.796874zm84.476562 48.78125c-6.964844-9.128906-15-22.851562-15-37.570312s8.039062-28.441406 15-37.566406c6.964844 9.128906 15 22.851562 15 37.566406 0 14.722656-8.035156 28.445312-15 37.570312zm44.460938-54.578124c-.550782-.320313-1.121094-.585938-1.695313-.828126-2.050781-8.28125-5.324219-15.914062-9.023437-22.675781 7.707031-.175781 15.957031-1.167969 24.152343-3.535156.496094.378906 1.011719.738281 1.566407 1.058594 12.75 7.359375 20.617187 21.183593 25.039062 31.773437-11.394531 1.464844-27.292969 1.566406-40.039062-5.792968zm0 0"/><path d="m451.601562 320.078125c1.570313-7.480469-2.738281-14.949219-10.003906-17.332031-1.582031-.515625-34.3125-10.980469-65.226562-.878906-6.714844-31.820313-32.125-54.929688-33.367188-56.042969-5.695312-5.097657-14.316406-5.097657-20.011718 0-1.238282 1.113281-26.648438 24.222656-33.363282 56.042969-30.917968-10.097657-63.644531.363281-65.226562.878906-7.265625 2.382812-11.574219 9.851562-10.007813 17.332031.34375 1.628906 7.644531 35.199219 31.84375 56.921875-24.199219 21.726562-31.5 55.292969-31.84375 56.921875-1.566406 7.484375 2.742188 14.949219 10.007813 17.332031 17.261718 5.65625 43.832031 7.867188 65.222656.878906 6.714844 31.820313 32.128906 54.933594 33.367188 56.042969 2.847656 2.550781 6.425781 3.824219 10.007812 3.824219 3.578125 0 7.15625-1.273438 10.003906-3.824219 1.242188-1.109375 26.652344-24.222656 33.367188-56.042969 21.773437 7.113282 48.519531 4.59375 65.226562-.878906 7.265625-2.382812 11.574219-9.847656 10.003906-17.332031-.339843-1.628906-7.644531-35.195313-31.839843-56.921875 24.199219-21.722656 31.5-55.292969 31.839843-56.921875zm-34.125 8.132813c-4.4375 10.605468-12.316406 24.445312-25.011718 31.777343 0 0 0 0-.003906.003907-12.746094 7.359374-28.652344 7.261718-40.035157 5.792968 4.425781-10.597656 12.289063-24.417968 25.035157-31.777344 12.742187-7.355468 28.632812-7.257812 40.015624-5.796874zm-84.476562-48.777344c6.964844 9.128906 15 22.847656 15 37.566406 0 .683594-.023438 1.375-.058594 2.070312-6.054687 5.863282-10.976562 12.445313-14.941406 18.960938-3.964844-6.515625-8.882812-13.09375-14.941406-18.960938-.035156-.695312-.058594-1.386718-.058594-2.070312 0-14.71875 8.039062-28.445312 15-37.566406zm-44.460938 54.578125c12.75 7.359375 20.613282 21.183593 25.035157 31.773437-11.390625 1.46875-27.289063 1.566406-40.035157-5.792968-12.742187-7.355469-20.605468-21.164063-25.027343-31.753907 11.402343-1.460937 27.328125-1.558593 40.027343 5.773438zm-40.015624 91.777343c4.4375-10.605468 12.316406-24.449218 25.015624-31.777343.59375-.34375 1.207032-.667969 1.828126-.988281 8.105468 2.3125 16.265624 3.289062 23.890624 3.464843-3.660156 6.691407-6.898437 14.238281-8.953124 22.414063-.585938.378906-1.171876.746094-1.765626 1.089844-12.742187 7.355468-28.632812 7.261718-40.015624 5.796874zm84.476562 48.78125c-6.964844-9.128906-15-22.851562-15-37.570312s8.039062-28.441406 15-37.566406c6.964844 9.128906 15 22.851562 15 37.566406 0 14.722656-8.035156 28.445312-15 37.570312zm44.460938-54.578124c-.550782-.320313-1.121094-.585938-1.695313-.828126-2.050781-8.28125-5.324219-15.914062-9.023437-22.675781 7.707031-.175781 15.960937-1.171875 24.152343-3.535156.496094.375 1.015625.734375 1.570313 1.054687 12.746094 7.363282 20.613281 21.1875 25.035156 31.777344-11.394531 1.46875-27.292969 1.566406-40.039062-5.792968zm0 0"/></svg>