<?xml version="1.0" encoding="iso-8859-1"?>
<!-- Generator: Adobe Illustrator 19.0.0, SVG Export Plug-In . SVG Version: 6.00 Build 0)  -->
<svg version="1.1" id="Capa_1" xmlns="http://www.w3.org/2000/svg" xmlns:xlink="http://www.w3.org/1999/xlink" x="0px" y="0px"
	 viewBox="0 0 473.765 473.765" style="enable-background:new 0 0 473.765 473.765;" xml:space="preserve">
<g>
	<g>
		<path d="M163.637,229.981c-9.498-9.06-24.438-9.06-33.936,0l-16.968,16.968c-9.208,9.534-8.944,24.728,0.59,33.936
			c9.301,8.983,24.046,8.983,33.346,0l16.968-16.968C173.006,254.545,173.006,239.353,163.637,229.981z M152.325,252.605
			l-16.968,16.968c-3.178,3.07-8.242,2.982-11.312-0.196c-2.994-3.1-2.994-8.015,0-11.116l16.968-16.968
			c1.5-1.5,3.534-2.344,5.656-2.344c4.418,0,8,3.582,8,8C154.669,249.071,153.825,251.105,152.325,252.605z"/>
	</g>
</g>
<g>
	<g>
		<path d="M240.143,26.879c-4.793-18.29-22.918-29.755-41.498-26.25c-31.363,6.216-55.88,30.733-62.096,62.096
			c-3.732,19.529,9.074,38.386,28.603,42.117c18.639,3.562,36.843-7.956,41.605-26.326c0.948-3.785,3.903-6.74,7.688-7.688
			C233.678,65.789,245.183,46.112,240.143,26.879z M210.589,55.317c-9.534,2.357-16.983,9.791-19.36,19.32
			c-2.828,10.678-13.777,17.041-24.454,14.213c-10.124-2.681-16.465-12.719-14.538-23.013c4.965-25.018,24.531-44.571,49.552-49.52
			c10.845-2.094,21.335,5.001,23.428,15.847C227.219,42.533,220.813,52.672,210.589,55.317z"/>
	</g>
</g>
<g>
	<g>
		<path d="M350.445,50.861c-3.783-0.943-6.737-3.897-7.68-7.68c-4.921-19.264-24.527-30.89-43.79-25.969
			c-18.481,4.721-30.072,23.038-26.426,41.761c6.222,31.359,30.737,55.874,62.096,62.096c2.339,0.465,4.719,0.698,7.104,0.696
			c19.882-0.065,35.947-16.236,35.881-36.118C377.576,69.204,366.388,54.887,350.445,50.861z M361.077,90.654
			c-1.042,4.147-3.387,7.85-6.688,10.567v0.04c-4.629,3.807-10.724,5.331-16.6,4.152c-25.029-4.958-44.594-24.523-49.552-49.552
			c-2.094-10.845,5.001-21.335,15.847-23.428c10.37-2.002,20.508,4.404,23.153,14.628c2.373,9.516,9.804,16.947,19.32,19.32
			C357.269,69.074,363.77,79.941,361.077,90.654z"/>
	</g>
</g>
<g>
	<g>
		<path d="M153.1,128.104c-7.685-0.756-15.408,0.98-22.031,4.95c-3.34,2.008-7.516,2.008-10.856,0
			c-17.17-10.024-39.216-4.231-49.24,12.939c-9.52,16.307-4.823,37.198,10.76,47.861c26.572,17.781,61.244,17.781,87.816,0
			c8.987-5.967,14.81-15.663,15.856-26.4C187.35,147.666,172.887,130.049,153.1,128.104z M160.677,180.541
			c-21.202,14.192-48.87,14.192-70.072,0c-9.106-6.253-11.418-18.703-5.166-27.809c5.924-8.626,17.496-11.228,26.542-5.967
			c8.403,5.064,18.917,5.064,27.32,0c9.548-5.553,21.79-2.314,27.343,7.234C171.905,163.046,169.304,174.618,160.677,180.541z"/>
	</g>
</g>
<g>
	<g>
		<path d="M368.989,188.861c-6.216-31.363-30.733-55.88-62.096-62.096c-19.529-3.732-38.385,9.074-42.117,28.603
			c-3.562,18.639,7.956,36.843,26.325,41.605c3.785,0.948,6.74,3.903,7.688,7.688c5.04,19.233,24.718,30.738,43.95,25.697
			C361.029,225.565,372.494,207.441,368.989,188.861z M337.454,215.402c-10.37,2.002-20.508-4.404-23.153-14.628
			c-2.37-9.518-9.802-16.95-19.32-19.32c-10.712-2.696-17.209-13.566-14.513-24.277c1.043-4.145,3.388-7.847,6.689-10.563v-0.04
			c3.565-2.935,8.039-4.538,12.656-4.536c1.324,0.001,2.645,0.13,3.944,0.384c25.028,4.956,44.592,24.524,49.544,49.552
			C355.395,202.819,348.3,213.308,337.454,215.402z"/>
	</g>
</g>
<g>
	<g>
		<path d="M115.259,54.949c-9.208-9.534-24.402-9.798-33.936-0.59c-0.2,0.193-0.397,0.39-0.59,0.59L63.765,71.917
			c-9.369,9.372-9.369,24.564,0,33.936c4.487,4.52,10.599,7.053,16.968,7.032c6.369,0.018,12.479-2.514,16.968-7.032l16.968-16.968
			C124.203,79.677,124.467,64.483,115.259,54.949z M103.357,77.573L86.389,94.541c-3.158,3.032-8.146,3.032-11.304,0
			c-1.511-1.489-2.357-3.526-2.344-5.648c-0.004-2.123,0.837-4.161,2.336-5.664l16.968-16.968c3.178-3.07,8.242-2.982,11.312,0.196
			C106.352,69.558,106.352,74.473,103.357,77.573z"/>
	</g>
</g>
<g>
	<g>
		<path d="M25.701,159.917c-13.255,0-24,10.745-24,24v24c0,13.255,10.745,24,24,24s24-10.745,24-24v-24
			C49.701,170.662,38.956,159.917,25.701,159.917z M33.701,207.917c0,4.418-3.582,8-8,8c-4.418,0-8-3.582-8-8v-24
			c0-4.418,3.582-8,8-8c4.418,0,8,3.582,8,8V207.917z"/>
	</g>
</g>
<g>
	<g>
		<path d="M41.696,246.954c-6.362,0.001-12.463,2.529-16.963,7.027L7.765,270.949c-9.534,9.208-9.799,24.402-0.591,33.936
			s24.402,9.799,33.936,0.591c0.2-0.193,0.397-0.39,0.591-0.591l16.968-16.968c4.518-4.489,7.05-10.599,7.032-16.968
			C65.698,257.694,54.951,246.952,41.696,246.954z M47.365,276.597l-0.008,0.008l-16.968,16.968c-3.161,3.024-8.143,3.024-11.304,0
			c-3.123-3.124-3.123-8.188,0-11.312l16.968-16.968c3.124-3.123,8.188-3.123,11.312,0
			C50.483,268.416,50.483,273.474,47.365,276.597z"/>
	</g>
</g>
<g>
	<g>
		<path d="M113.238,301.941c-2.364,0-4.722,0.234-7.041,0.697c-31.356,6.218-55.87,30.726-62.096,62.08
			c-3.764,19.523,9.011,38.4,28.533,42.165c18.685,3.603,36.946-7.958,41.683-26.389c0.935-3.783,3.889-6.737,7.672-7.672
			c16.021-3.988,27.263-18.378,27.256-34.888C149.241,318.051,133.12,301.936,113.238,301.941z M118.077,357.317l0.032,0.008
			c-9.519,2.36-16.952,9.793-19.312,19.312c-2.82,10.68-13.763,17.051-24.443,14.231c-10.107-2.669-16.454-12.67-14.565-22.951
			c4.944-25.045,24.512-44.632,49.552-49.6c1.296-0.257,2.614-0.388,3.936-0.392c11.046,0.051,19.958,9.047,19.907,20.093
			C133.141,347.144,126.926,355.084,118.077,357.317z"/>
	</g>
</g>
<g>
	<g>
		<path d="M241.696,86.954c-6.362,0.001-12.463,2.529-16.963,7.027l-16.968,16.968c-9.534,9.208-9.798,24.402-0.59,33.936
			s24.402,9.798,33.936,0.59c0.2-0.193,0.396-0.39,0.59-0.59l16.968-16.968c4.518-4.489,7.05-10.599,7.032-16.968
			C265.698,97.694,254.951,86.952,241.696,86.954z M247.357,116.597v0.008l-16.968,16.968c-3.162,3.029-8.15,3.029-11.312,0
			c-3.123-3.124-3.123-8.188,0-11.312l16.968-16.968c3.124-3.123,8.188-3.123,11.312,0
			C250.475,108.416,250.475,113.474,247.357,116.597z"/>
	</g>
</g>
<g>
	<g>
		<path d="M435.637,109.981c-9.499-9.065-24.445-9.065-33.944,0l-16.968,16.968c-9.371,9.374-9.369,24.57,0.005,33.941
			c4.501,4.5,10.606,7.028,16.971,7.027c6.365,0.013,12.472-2.512,16.968-7.016l16.968-16.984
			C445.006,134.545,445.006,119.353,435.637,109.981z M424.325,132.621l-16.968,16.968c-3.178,3.07-8.242,2.982-11.312-0.196
			c-2.994-3.1-2.994-8.015,0-11.116l16.968-16.968c1.5-1.5,3.534-2.344,5.656-2.344c4.418,0,8,3.582,8,8
			C426.669,129.087,425.825,131.121,424.325,132.621z"/>
	</g>
</g>
<g>
	<g>
		<path d="M233.701,199.917c-13.255,0-24,10.745-24,24v24c0,13.255,10.745,24,24,24s24-10.745,24-24v-24
			C257.701,210.662,246.956,199.917,233.701,199.917z M241.701,247.917c0,4.418-3.582,8-8,8c-4.418,0-8-3.582-8-8v-24
			c0-4.418,3.582-8,8-8c4.418,0,8,3.582,8,8V247.917z"/>
	</g>
</g>
<g>
	<g>
		<path d="M472.143,202.879c-4.793-18.29-22.918-29.755-41.498-26.25c-31.363,6.216-55.88,30.733-62.096,62.096
			c-3.732,19.529,9.074,38.385,28.603,42.117c18.639,3.562,36.843-7.956,41.605-26.325c0.948-3.785,3.903-6.74,7.688-7.688
			C465.678,241.789,477.183,222.112,472.143,202.879z M442.549,231.293v0.024c-9.518,2.37-16.95,9.802-19.32,19.32
			c-2.828,10.678-13.777,17.041-24.454,14.213c-10.124-2.681-16.465-12.718-14.538-23.013c4.956-25.027,24.524-44.592,49.552-49.544
			c10.861-2.014,21.297,5.158,23.311,16.019C459.008,218.599,452.664,228.618,442.549,231.293z"/>
	</g>
</g>
<g>
	<g>
		<path d="M206.445,402.861c-3.783-0.943-6.737-3.897-7.68-7.68c-4.921-19.264-24.527-30.89-43.79-25.969
			c-18.481,4.721-30.072,23.038-26.426,41.761c6.222,31.359,30.737,55.874,62.096,62.096c2.339,0.465,4.719,0.698,7.104,0.696
			c19.882-0.066,35.947-16.236,35.881-36.118C233.576,421.204,222.388,406.887,206.445,402.861z M217.077,442.694
			c-1.042,4.147-3.387,7.85-6.688,10.567c-4.629,3.807-10.724,5.331-16.6,4.152c-25.029-4.958-44.594-24.523-49.552-49.552
			c-2.014-10.861,5.158-21.297,16.019-23.311c10.287-1.907,20.306,4.436,22.981,14.551c2.373,9.516,9.804,16.947,19.32,19.32
			C213.269,421.114,219.77,431.981,217.077,442.694z"/>
	</g>
</g>
<g>
	<g>
		<path d="M235.259,312.507c-0.193-0.2-0.39-0.397-0.59-0.59l-16.968-16.968c-9.496-9.064-24.44-9.064-33.936,0
			c-9.369,9.372-9.369,24.564,0,33.936l16.968,16.968c9.208,9.534,24.402,9.798,33.936,0.59S244.467,322.041,235.259,312.507z
			 M223.357,334.533c-3.124,3.123-8.188,3.123-11.312,0l-16.968-16.968c-3.123-3.124-3.123-8.188,0-11.312
			c3.123-3.118,8.181-3.118,11.304,0l16.968,16.968c3.118,3.123,3.118,8.181,0,11.304L223.357,334.533z"/>
	</g>
</g>
<g>
	<g>
		<path d="M397.701,360.717c-7.871-6.442-18.254-8.934-28.192-6.768c-29.282,6.244-52.156,29.118-58.4,58.4
			c-3.954,17.832,7.296,35.493,25.127,39.448c2.385,0.529,4.822,0.792,7.265,0.784h0.456c15.541-0.274,29.003-10.852,32.944-25.888
			c0.903-3.385,3.549-6.029,6.936-6.928c15.03-3.957,25.601-17.42,25.88-32.96C409.908,376.73,405.482,367.12,397.701,360.717z
			 M393.749,386.589c-0.169,8.356-5.861,15.587-13.944,17.712c-8.968,2.36-15.972,9.362-18.336,18.328
			c-2.118,8.088-9.353,13.784-17.712,13.944h-0.24c-5.131,0.035-10.006-2.242-13.272-6.2c-3.347-4.112-4.626-9.53-3.472-14.704
			c4.925-23.096,22.968-41.139,46.064-46.064c1.241-0.269,2.506-0.406,3.776-0.408c9.415-0.05,17.089,7.541,17.139,16.956
			C393.753,386.299,393.752,386.444,393.749,386.589z"/>
	</g>
</g>
<g>
	<g>
		<path d="M450.079,294.949c-9.301-8.983-24.046-8.983-33.346,0l-16.968,16.968c-9.369,9.372-9.369,24.564,0,33.936
			c9.372,9.369,24.564,9.369,33.936,0l16.968-16.968C459.877,319.351,459.613,304.158,450.079,294.949z M439.365,317.581
			l-0.008-0.008l-16.968,16.968c-3.16,3.028-8.144,3.028-11.304,0c-1.511-1.489-2.357-3.526-2.344-5.648
			c0-2.122,0.844-4.156,2.344-5.656l16.968-16.968c3.178-3.07,8.242-2.982,11.312,0.196
			C442.36,309.565,442.36,314.481,439.365,317.581z"/>
	</g>
</g>
<g>
	<g>
		<path d="M273.701,399.917c-13.255,0-24,10.745-24,24v24c0,13.255,10.745,24,24,24s24-10.745,24-24v-24
			C297.701,410.662,286.956,399.917,273.701,399.917z M281.701,447.917c0,4.418-3.582,8-8,8c-4.418,0-8-3.582-8-8v-24
			c0-4.418,3.582-8,8-8c4.418,0,8,3.582,8,8V447.917z"/>
	</g>
</g>
<g>
	<g>
		<path d="M336.965,259.826c-18.564-3.487-36.665,7.966-41.464,26.235c-0.953,3.778-3.902,6.727-7.68,7.68
			c-19.281,4.851-30.98,24.414-26.129,43.695c4.016,15.964,18.348,27.17,34.809,27.217c2.385-0.001,4.765-0.237,7.104-0.704
			c31.362-6.218,55.878-30.734,62.096-62.096C369.371,282.313,356.506,263.497,336.965,259.826z M349.981,298.733
			c-4.956,24.999-24.486,44.548-49.48,49.528l-0.032-0.008c-10.845,2.094-21.335-5.001-23.428-15.847
			c-2.002-10.369,4.404-20.508,14.628-23.153c9.516-2.373,16.947-9.804,19.32-19.32c2.828-10.678,13.777-17.041,24.454-14.213
			C345.567,278.402,351.908,288.439,349.981,298.733z"/>
	</g>
</g>
<g>
</g>
<g>
</g>
<g>
</g>
<g>
</g>
<g>
</g>
<g>
</g>
<g>
</g>
<g>
</g>
<g>
</g>
<g>
</g>
<g>
</g>
<g>
</g>
<g>
</g>
<g>
</g>
<g>
</g>
</svg>
