<svg id="Layer_5" enable-background="new 0 0 64 64" height="512" viewBox="0 0 64 64" width="512" xmlns="http://www.w3.org/2000/svg"><g><path d="m33 49.849v-.473c0-1.909-.744-3.705-2.095-5.057l-1.956-1.955c-.879-.88-2.048-1.364-3.292-1.364-3.671 0-6.657-2.986-6.657-6.657 0-1.243-.484-2.413-1.364-3.293l-1.857-1.857c-1.414-1.415-3.294-2.193-5.294-2.193-4.127 0-7.485 3.357-7.485 7.485v.583c0 .545.06 1.091.178 1.624 2.222 10 10.135 17.825 20.16 19.936l1.038.219c.483.101.978.153 1.473.153 3.943 0 7.151-3.208 7.151-7.151zm-24.92-6.274c-.423-.694-.815-1.417-1.164-2.146l1.804-.863c.32.668.679 1.33 1.068 1.968zm-1.08-9.09v.583c0 .253.028.508.083.757.217.974.502 1.941.848 2.876l-1.876.693c-.376-1.018-.688-2.073-.924-3.136-.087-.391-.131-.791-.131-1.19v-.583c0-2.825 2.118-5.172 4.926-5.457l.202 1.99c-1.783.181-3.128 1.672-3.128 3.467zm15.771 10.119c-3.508-.988-6.323-3.776-7.345-7.275l1.92-.561c.831 2.843 3.117 5.107 5.967 5.91z"/><path d="m49.979 21c-2.943 0-5.711 1.146-7.793 3.228l-1.201 1.201c-1.28 1.28-1.985 2.982-1.985 4.793 0 4.84-3.938 8.778-8.778 8.778-.79 0-1.564.141-2.294.404.904.328 1.736.846 2.436 1.546l1.956 1.955c1.729 1.729 2.68 4.027 2.68 6.471v.473c0 5.046-4.105 9.151-9.151 9.151-.173 0-.345-.017-.518-.027 1.775 1.3 3.916 2.027 6.191 2.027.897 0 1.79-.114 2.655-.341l1.063-.277c12.304-3.21 22.026-12.824 25.372-25.092.258-.945.388-1.921.388-2.899v-.37c0-6.078-4.944-11.021-11.021-11.021zm-15.386 19.073c2.444-1.089 4.391-3.035 5.48-5.48l1.827.814c-1.291 2.896-3.597 5.202-6.494 6.492zm.142 18.374-.482.126-.505-1.936.482-.126c4.932-1.286 9.54-3.794 13.325-7.25l1.349 1.477c-4.025 3.675-8.924 6.341-14.169 7.709zm15.249-8.739-1.413-1.416c.622-.62 1.224-1.272 1.789-1.938l1.525 1.293c-.601.707-1.24 1.402-1.901 2.061z"/><path d="m6.916 25.703c1.103-.45 2.307-.703 3.569-.703 2.534 0 4.916.986 6.707 2.778l1.858 1.857c1.257 1.259 1.95 2.93 1.95 4.707 0 2.264 1.625 4.151 3.769 4.567 1.549-1.229 3.463-1.909 5.453-1.909 3.737 0 6.778-3.041 6.778-6.778 0-2.345.913-4.549 2.571-6.207l.015-.015-1.015-1.015c-1.28-1.28-2.982-1.985-4.793-1.985-4.84 0-8.778-3.938-8.778-8.778 0-1.811-.705-3.513-1.985-4.793l-1.201-1.201c-2.082-2.082-4.85-3.228-7.793-3.228-6.077 0-11.021 4.943-11.021 11.021v.37c0 .979.131 1.954.389 2.898.804 2.951 2.001 5.771 3.527 8.414zm17.011-9.11c1.089 2.445 3.036 4.392 5.48 5.48l-.813 1.826c-2.896-1.29-5.203-3.596-6.494-6.492zm-17.764 2.826c-.257-.704-.492-1.424-.699-2.141l1.921-.557c.195.674.416 1.352.657 2.013zm-1.163-5.398c0-4.961 4.036-9.008 8.998-9.021l.005 2c-3.861.01-7.003 3.159-7.003 7.021v.37c0 .178.007.355.021.532l-1.994.154c-.018-.227-.027-.458-.027-.686z"/></g></svg>