<svg height="479pt" viewBox="0 -15 479.99829 479" width="479pt" xmlns="http://www.w3.org/2000/svg"><path d="m47.441406 224.769531c4.558594 4.597657 9.402344 8.90625 14.503906 12.894531l9.871094-12.582031c-4.574218-3.589843-8.925781-7.460937-13.023437-11.585937-27.335938-27.410156-42.71875-64.523438-42.792969-103.238282v-70h70c38.6875.117188 75.765625 15.480469 103.199219 42.757813 11.933593 11.980469 21.679687 25.953125 28.800781 41.289063-4.667969 27.257812.28125 55.292968 14 79.304687v28.945313c-8.613281-6.476563-18.066406-11.761719-28.097656-15.707032l-3.902344-3.910156v-76.441406h-16v60.441406l-32-32v-68.441406h-16v52.441406l-32-32v-44.441406h-16v28.449218l-35.703125-35.703124-11.3125 11.3125 35.910156 35.941406h-28.894531v16h44.886719l32 32h-52.886719v16h68.847656l32.855469 32.800781c-52.339844-6.125-102.496094 22.820313-123.382813 71.199219h-42.082031c-4.417969 0-8 3.582031-8 8 .015625 16.289062 8.445313 31.417968 22.289063 40-13.859375 8.570312-22.292969 23.707031-22.289063 40 0 4.417968 3.582031 8 8 8h42.082031c17.675782 40.402344 56.097657 67.84375 100.042969 71.464844 43.949219 3.617187 86.339844-17.167969 110.390625-54.128907 24.050782-36.964843 25.878906-84.140625 4.765625-122.855469 5.683594-8.699218 12.6875-16.457031 20.761719-23 35.457031-28.984374 85.703125-31.363281 123.738281-5.859374 38.039063 25.503906 54.914063 72.890624 41.566407 116.699218-13.351563 43.808594-53.789063 73.726563-99.585938 73.679688-27.59375.097656-54.074219-10.875-73.511719-30.460938l-11.289062 11.261719c32.09375 32.277344 79.691406 43.609375 122.882812 29.253906 43.195313-14.355469 74.539063-51.921875 80.929688-96.984375 6.390625-45.066406-13.277344-89.867187-50.78125-115.660156.28125-.273438.59375-.511719.867187-.800781 33.558594-33.808594 44.050782-84.214844 26.773438-128.609375l29.785156-29.78125c3.121094-3.125 3.121094-8.1875 0-11.3125-11.542969-11.492188-28.195312-16.21875-44.054688-12.503906 3.738282-15.863282-1-32.535157-12.53125-44.058594-3.121093-3.121094-8.1875-3.121094-11.308593 0l-29.761719 29.785156c-44.398438-17.265625-94.796875-6.769531-128.617188 26.777344-12.03125 12.035156-21.351562 26.511718-27.328124 42.445312-29.199219-48.308594-81.605469-77.761718-138.054688-77.589844h-78c-4.417969 0-8 3.582032-8 8v78c.0703125 42.9375 17.125 84.105469 47.441406 114.511719zm-30.152344 71.726563h27.40625c-2.039062 7.28125-3.375 14.738281-4 22.273437-11.363281-2.441406-20.402343-11.042969-23.40625-22.273437zm0 64c1.140626-4.292969 3.191407-8.289063 6.015626-11.71875 4.433593-5.398438 10.582031-9.121094 17.421874-10.542969.613282 7.53125 1.941407 14.984375 3.96875 22.261719zm142.941407 72c-57.410157-.066406-103.933594-46.589844-104-104 0-57.4375 46.5625-104 104-104s104 46.5625 104 104-46.5625 104-104 104zm87.769531-185.597656v-21.601563c1.152344 1.257813 2.175781 2.617187 3.382812 3.824219 5.097657 5.085937 10.644532 9.695312 16.578126 13.777344-4.324219 4.234374-8.308594 8.808593-11.914063 13.671874-2.511719-3.363281-5.199219-6.589843-8.046875-9.671874zm211.9375-181.097657-19.296875 19.304688c-3.726563-6.585938-8.082031-12.792969-13-18.542969 9.785156-6.242188 22.226563-6.535156 32.296875-.761719zm-45.226562-45.261719c5.816406 10.070313 5.507812 22.546876-.800782 32.320313-5.738281-4.917969-11.9375-9.273437-18.511718-13zm-152 50.175782c30.5625-30.363282 76.625-38.851563 116-21.378906 23.378906 10.421874 42.074218 29.128906 52.480468 52.511718 17.457032 39.367188 8.960938 85.410156-21.390625 115.953125-1.242187 1.242188-2.601562 2.402344-3.90625 3.570313-40.378906-20.464844-88.867187-16.285156-125.152343 10.78125-6.53125-4.085938-12.582032-8.902344-18.03125-14.351563-6.085938-6.085937-11.398438-12.898437-15.824219-20.28125-24.289063-40.925781-17.777344-93.105469 15.824219-126.804687zm0 0"/><path d="m328.800781 72.875-1.601562-15.914062c-6.347657.65625-12.609375 1.996093-18.671875 4l5.039062 15.199218c4.945313-1.644531 10.050782-2.746094 15.234375-3.285156zm0 0"/><path d="m285.488281 93.519531c4.636719-4.644531 9.886719-8.632812 15.609375-11.855469l-7.851562-13.964843c-23.414063 13.179687-39.515625 36.34375-43.710938 62.886719l15.800782 2.480468c2.332031-14.992187 9.394531-28.847656 20.152343-39.546875zm0 0"/><path d="m342.886719 377.867188c9.601562 6.953124 22.089843 8.523437 33.113281 4.160156 11.023438 4.371094 23.515625 2.800781 33.113281-4.160156 10.074219-7.195313 15.722657-19.078126 14.933594-31.433594 7.703125-9.589844 10-22.4375 6.097656-34.105469-3.667969-11.394531-12.84375-20.167969-24.390625-23.320313-6.40625-10.265624-17.652344-16.507812-29.753906-16.507812s-23.347656 6.242188-29.753906 16.507812c-11.546875 3.152344-20.722656 11.925782-24.390625 23.320313-3.902344 11.667969-1.605469 24.515625 6.097656 34.105469-.789063 12.355468 4.859375 24.238281 14.933594 31.433594zm-5.832031-60.570313c2.1875-7.078125 8.253906-12.269531 15.585937-13.335937 2.617187-.390626 4.871094-2.046876 6.023437-4.429688 3.132813-6.75 9.894532-11.066406 17.335938-11.066406s14.203125 4.316406 17.335938 11.066406c1.152343 2.382812 3.40625 4.039062 6.023437 4.429688 7.332031 1.066406 13.398437 6.257812 15.585937 13.335937 2.503907 7.28125.605469 15.355469-4.882812 20.761719-1.835938 1.828125-2.675781 4.433594-2.246094 6.992187 1.421875 7.589844-1.699218 15.316407-8 19.78125-5.839844 4.304688-13.648437 4.816407-20 1.3125-2.363281-1.269531-5.207031-1.269531-7.570312 0-6.347656 3.503907-14.160156 2.992188-20-1.3125-6.296875-4.464843-9.421875-12.191406-8-19.78125.429687-2.558593-.40625-5.164062-2.246094-6.992187-5.511719-5.390625-7.433594-13.464844-4.945312-20.761719zm0 0"/><path d="m135.832031 246.976562 5.039063 15.199219c4.960937-1.644531 10.089844-2.742187 15.289062-3.277343l-1.65625-15.914063c-6.351562.652344-12.609375 1.992187-18.671875 3.992187zm0 0"/><path d="m101.511719 268.203125c-13.164063 13.09375-21.800781 30.054687-24.648438 48.40625l15.808594 2.480469c2.320313-15 9.371094-28.867188 20.128906-39.578125 4.648438-4.628907 9.90625-8.605469 15.632813-11.8125l-7.847656-13.945313c-6.988282 3.921875-13.40625 8.785156-19.074219 14.449219zm0 0"/></svg>