<svg id="Layer_1" enable-background="new 0 0 512 512" height="512" viewBox="0 0 512 512" width="512" xmlns="http://www.w3.org/2000/svg"><g><path d="m478.66 317.242c-5.201-8.024-11.774-19.466-27.469-29.182 1.661-20.214-10.8-40.652-32.637-46.901-4.422-24.792-30.671-36.009-55.512-30.835-13.968-13.027-37.061-14.819-53.489-9.837-6.166-11.309-12.997-21.233-19.965-28.953-2.774-3.074-7.518-3.318-10.593-.542-3.075 2.775-3.317 7.518-.542 10.593 5.963 6.607 12.075 15.474 17.56 25.413-1.459 1.031-2.842 2.134-4.119 3.325-24.672-5.079-50.984 5.85-55.434 30.85-11.631 3.351-21.152 10.84-26.991 21.215-3.835-2.678-7.094-5.335-9.61-7.85-10.561-10.561-14.087-26.474-8.984-40.541 3.564-9.822 13.282-19.532 23.107-23.088 3.895-1.41 5.91-5.71 4.5-9.604-1.409-3.896-5.711-5.908-9.604-4.501-14.091 5.1-26.992 17.99-32.103 32.078-7.081 19.519-2.183 41.603 12.478 56.264 3.86 3.859 9.006 7.893 15.031 11.824-.633 3.68-.81 7.425-.501 11.139-1.629 1.056-3.197 2.177-4.707 3.338-8.216-5.113-15.222-10.488-20.429-15.695-19.671-19.672-24.691-47.946-15.972-71.984 1.173-3.235-.006-6.854-2.86-8.777l-124.662-83.993c-12.807-10.305-20.153-25.632-20.153-42.053 0-29.745 24.2-53.945 53.946-53.945 16.306 0 31.631 7.371 42.096 20.236l83.961 124.6c1.921 2.851 5.535 4.031 8.771 2.861 17.608-6.372 36.871-5.186 53.195 2.672 3.731 1.795 8.214.228 10.011-3.505 1.796-3.732.228-8.214-3.505-10.011-18.326-8.822-39.495-10.668-59.183-5.075-.273-.405-81.064-120.326-81.371-120.706-13.33-16.569-33.004-26.072-53.975-26.072-38.017 0-68.946 30.929-68.946 68.945 0 24.142 13.223 45.306 26.742 54.471l120.017 80.861c-.509 1.795-.944 3.614-1.333 5.446-23.594-3.39-47.655 7.588-51.898 31.449-21.629 6.229-34.355 26.414-32.684 46.865-15.663 9.686-22.237 21.074-27.5 29.199-18.729 2.076-33.344 17.992-33.344 37.264 0 20.678 16.822 37.5 37.5 37.5h15.654c11.342 19.479 24.74 37.791 39.872 54.488 2.781 3.069 7.524 3.303 10.594.521s3.303-7.524.521-10.594c-12.455-13.743-23.654-28.651-33.449-44.415h103.615c4.142 0 7.5-3.357 7.5-7.5s-3.358-7.5-7.5-7.5c-4.336 0-121.186 0-136.808 0-12.406 0-22.499-10.094-22.499-22.5s10.093-22.5 22.5-22.5h437c11.902 0 22.372 9.592 22.499 22.473 0 12.211-10.612 22.527-23.175 22.527-3.229 0-134.922 0-136.132 0-4.143 0-7.5 3.357-7.5 7.5s3.357 7.5 7.5 7.5h103.632c-19.505 31.448-44.233 58.851-73.679 81.56-19.61 15.116-44.026 23.44-68.75 23.44h-85.79c-24.733 0-49.148-8.324-68.749-23.438-6.713-5.178-13.291-10.699-19.549-16.409-3.06-2.793-7.804-2.575-10.595.484-2.792 3.06-2.575 7.804.485 10.596 6.562 5.988 13.459 11.777 20.499 17.207 22.211 17.127 49.88 26.56 77.909 26.56h85.79c28.02 0 55.688-9.433 77.91-26.561 33.327-25.702 60.912-57.123 82.042-93.439h14.978c21.05 0 38.176-16.835 38.176-37.527-.001-19.144-14.726-35.129-33.341-37.231zm-351.862-15.242c-4.142 0-7.5 3.357-7.5 7.5 0 4.136-3.364 7.5-7.5 7.5s-7.5-3.364-7.5-7.5c0-12.406 10.093-22.5 22.5-22.5 4.136 0 7.5 3.364 7.5 7.5s-3.364 7.5-7.5 7.5zm49.393 15h-43.196c.114-.322.237-.639.337-.967 9.23-2.806 15.967-11.397 15.967-21.533 0-12.406-10.093-22.5-22.5-22.5-20.678 0-37.5 16.822-37.5 37.5 0 2.629.458 5.153 1.29 7.5h-39.104c4.477-6.246 10.44-12.716 21.046-18.392 2.951-1.578 4.498-4.921 3.793-8.192-3.224-14.965 6.11-32.581 25.304-35.715 3.544-.579 6.181-3.589 6.288-7.179.537-18.025 18.497-25.573 35.695-22.921-.734 23.208 7.975 45.3 24.429 61.755 5.234 5.234 11.934 10.549 19.659 15.619-5.317 5.816-9.221 11.431-11.508 15.025zm18.42 0c4.953-6.249 12.114-13.713 20.854-18.392 2.951-1.578 4.498-4.921 3.793-8.192-3.202-14.863 6.063-32.574 25.304-35.715 3.544-.579 6.181-3.59 6.288-7.18.61-20.499 23.425-26.879 41.405-21.67 2.886.838 5.995-.13 7.896-2.457 11.307-13.838 43.097-14.136 54.64.008 1.907 2.336 5.026 3.306 7.924 2.454 17.897-5.256 40.858 1.19 41.45 21.658.104 3.599 2.752 6.616 6.308 7.188 19.867 3.19 28.392 21.721 25.234 35.646-.746 3.292.799 6.678 3.775 8.271 10.606 5.677 16.562 12.143 21.033 18.382h-265.904z"/><path d="m306.235 260.937c-2.806-9.23-11.397-15.967-21.533-15.967-12.407 0-22.5 10.094-22.5 22.5 0 20.678 16.822 37.5 37.5 37.5 12.407 0 22.5-10.094 22.5-22.5 0-10.136-6.737-18.728-15.967-21.533zm-6.533 29.033c-12.407 0-22.5-10.094-22.5-22.5 0-4.136 3.364-7.5 7.5-7.5s7.5 3.364 7.5 7.5c0 4.143 3.358 7.5 7.5 7.5 4.136 0 7.5 3.364 7.5 7.5s-3.365 7.5-7.5 7.5z"/><path d="m382.111 246.453c-8.773-8.771-23.046-8.771-31.819 0-14.621 14.622-14.621 38.412 0 53.034 8.772 8.77 23.047 8.772 31.82-.001 7.166-7.167 8.478-18.005 3.936-26.517 4.543-8.51 3.23-19.349-3.937-26.516zm-10.606 31.819c2.924 2.925 2.924 7.684.001 10.607-2.926 2.924-7.685 2.924-10.606 0-8.773-8.772-8.773-23.047 0-31.819 2.925-2.925 7.682-2.924 10.605 0 2.925 2.924 2.925 7.682 0 10.605-2.929 2.93-2.929 7.679 0 10.607z"/><path d="m298.702 154.97c20.678 0 37.5-16.822 37.5-37.5 0-12.406-10.094-22.5-22.5-22.5-10.136 0-18.727 6.736-21.533 15.967-9.23 2.806-15.967 11.397-15.967 21.533 0 12.406 10.093 22.5 22.5 22.5zm0-30c4.142 0 7.5-3.357 7.5-7.5 0-4.136 3.364-7.5 7.5-7.5s7.5 3.364 7.5 7.5c0 12.406-10.094 22.5-22.5 22.5-4.136 0-7.5-3.364-7.5-7.5s3.364-7.5 7.5-7.5z"/><path d="m389.322 164.97c0 10.026 3.896 19.443 10.97 26.518 8.772 8.77 23.047 8.772 31.82-.001 7.166-7.167 8.478-18.005 3.936-26.517 4.543-8.511 3.23-19.35-3.936-26.517-8.791-8.791-23.026-8.796-31.819 0-7.074 7.073-10.971 16.49-10.971 26.517zm21.577-15.91c2.93-2.93 7.675-2.931 10.605.001 2.925 2.924 2.925 7.682 0 10.605-2.929 2.929-2.929 7.678 0 10.606 2.924 2.925 2.924 7.684.001 10.607-2.926 2.924-7.685 2.924-10.606 0-4.241-4.24-6.577-9.891-6.577-15.91 0-6.018 2.336-11.668 6.577-15.909z"/><path d="m402.719 70.88c8.772-8.773 8.772-23.047 0-31.82-7.168-7.166-18.006-8.479-26.517-3.936-8.512-4.54-19.35-3.229-26.518 3.936-8.772 8.773-8.772 23.047 0 31.82 14.623 14.621 38.411 14.621 53.035 0zm-42.428-21.213c2.926-2.924 7.682-2.925 10.608 0 2.93 2.928 7.677 2.928 10.606 0 2.924-2.926 7.682-2.926 10.605 0 2.925 2.924 2.925 7.682 0 10.605-8.771 8.772-23.047 8.774-31.819 0-2.924-2.923-2.924-7.681 0-10.605z"/><path d="m201.051 436.5v-12c0-4.143-3.358-7.5-7.5-7.5s-7.5 3.357-7.5 7.5v12c0 4.143 3.358 7.5 7.5 7.5s7.5-3.357 7.5-7.5z"/><path d="m325.949 436.5v-12c0-4.143-3.358-7.5-7.5-7.5s-7.5 3.357-7.5 7.5v12c0 4.143 3.358 7.5 7.5 7.5s7.5-3.357 7.5-7.5z"/><path d="m278.119 441.07c2.721-3.123 2.396-7.86-.727-10.582s-7.861-2.396-10.582.727c-5.724 6.57-15.9 6.566-21.62 0-2.722-3.122-7.459-3.447-10.582-.727-3.123 2.722-3.448 7.459-.727 10.582 11.706 13.431 32.545 13.417 44.238 0z"/></g></svg>