<?xml version="1.0" encoding="iso-8859-1"?>
<!-- Generator: Adobe Illustrator 19.0.0, SVG Export Plug-In . SVG Version: 6.00 Build 0)  -->
<svg version="1.1" id="Capa_1" xmlns="http://www.w3.org/2000/svg" xmlns:xlink="http://www.w3.org/1999/xlink" x="0px" y="0px"
	 viewBox="0 0 480 480" style="enable-background:new 0 0 480 480;" xml:space="preserve">
<g>
	<g>
		<path d="M376,0H104c-4.418,0-8,3.582-8,8v288h16V16h256v160h16V8C384,3.582,380.418,0,376,0z"/>
	</g>
</g>
<g>
	<g>
		<path d="M264,32h-48c-4.418,0-8,3.582-8,8v48c0,4.418,3.582,8,8,8h48c4.418,0,8-3.582,8-8V40C272,35.582,268.418,32,264,32z
			 M256,80h-32V48h32V80z"/>
	</g>
</g>
<g>
	<g>
		<path d="M184,32h-48c-4.418,0-8,3.582-8,8v48c0,4.418,3.582,8,8,8h48c4.418,0,8-3.582,8-8V40C192,35.582,188.418,32,184,32z
			 M176,80h-32V48h32V80z"/>
	</g>
</g>
<g>
	<g>
		<path d="M344,32h-48c-4.418,0-8,3.582-8,8v48c0,4.418,3.582,8,8,8h48c4.418,0,8-3.582,8-8V40C352,35.582,348.418,32,344,32z
			 M336,80h-32V48h32V80z"/>
	</g>
</g>
<g>
	<g>
		<path d="M264,112h-48c-4.418,0-8,3.582-8,8v48c0,4.418,3.582,8,8,8h48c4.418,0,8-3.582,8-8v-48C272,115.582,268.418,112,264,112z
			 M256,160h-32v-32h32V160z"/>
	</g>
</g>
<g>
	<g>
		<path d="M184,112h-48c-4.418,0-8,3.582-8,8v48c0,4.418,3.582,8,8,8h48c4.418,0,8-3.582,8-8v-48C192,115.582,188.418,112,184,112z
			 M176,160h-32v-32h32V160z"/>
	</g>
</g>
<g>
	<g>
		<path d="M344,112h-48c-4.418,0-8,3.582-8,8v48c0,4.418,3.582,8,8,8h48c4.418,0,8-3.582,8-8v-48C352,115.582,348.418,112,344,112z
			 M336,160h-32v-32h32V160z"/>
	</g>
</g>
<g>
	<g>
		<path d="M264,192h-48c-4.418,0-8,3.582-8,8v48h16v-40h32v16h16v-24C272,195.582,268.418,192,264,192z"/>
	</g>
</g>
<g>
	<g>
		<path d="M184,192h-48c-4.418,0-8,3.582-8,8v48c0,4.418,3.582,8,8,8h48c4.418,0,8-3.582,8-8v-48C192,195.582,188.418,192,184,192z
			 M176,240h-32v-32h32V240z"/>
	</g>
</g>
<g>
	<g>
		<path d="M136,272c-4.418,0-8,3.582-8,8v8h24v-16H136z"/>
	</g>
</g>
<g>
	<g>
		<path d="M296,192c-4.418,0-8,3.582-8,8v16h16v-8h16v-16H296z"/>
	</g>
</g>
<g>
	<g>
		<path d="M383.904,199.248c-0.024-0.256-0.048-0.528-0.096-0.8c-0.113-0.549-0.282-1.085-0.504-1.6
			c-0.08-0.184-0.128-0.368-0.216-0.544c-0.35-0.685-0.798-1.315-1.328-1.872v-0.048c-0.072-0.072-0.168-0.112-0.24-0.184
			c-0.369-0.367-0.771-0.699-1.2-0.992c-0.112-0.072-0.248-0.104-0.36-0.168c-0.112-0.064-0.44-0.208-0.664-0.312
			c-0.469-0.21-0.956-0.376-1.456-0.496c-0.256-0.056-0.504-0.112-0.76-0.144c-0.532-0.057-1.068-0.057-1.6,0
			c-0.224,0-0.448,0-0.664,0c-0.763,0.103-1.508,0.319-2.208,0.64l-272,128c-0.741,0.359-1.421,0.831-2.016,1.4
			c-0.178,0.188-0.347,0.386-0.504,0.592c-0.363,0.389-0.687,0.813-0.968,1.264c-0.14,0.259-0.266,0.526-0.376,0.8
			c-0.2,0.441-0.361,0.899-0.48,1.368c-0.073,0.321-0.121,0.648-0.144,0.976c-0.057,0.288-0.098,0.579-0.12,0.872v144
			c0,4.418,3.582,8,8,8h272c4.418,0,8-3.582,8-8V200C384,199.744,383.928,199.504,383.904,199.248z M358.52,217.072l-67.032,134.072
			l-160.88-26.824L358.52,217.072z M328,313.888V392H152v-47.888l142.688,23.776c3.464,0.578,6.901-1.171,8.472-4.312L328,313.888z
			 M368,464H112v-16h256V464z M368,432H112v-94.56l24,4V400c0,4.418,3.582,8,8,8h192c4.418,0,8-3.582,8-8V281.888l24-48V432z"/>
	</g>
</g>
<g>
</g>
<g>
</g>
<g>
</g>
<g>
</g>
<g>
</g>
<g>
</g>
<g>
</g>
<g>
</g>
<g>
</g>
<g>
</g>
<g>
</g>
<g>
</g>
<g>
</g>
<g>
</g>
<g>
</g>
</svg>
