<svg id="Layer_1" enable-background="new 0 0 512 512" height="512" viewBox="0 0 512 512" width="512" xmlns="http://www.w3.org/2000/svg"><g><path d="m186.758 205.737c-62.287 25.325-98.573 116.238-100.087 120.096-2.017 5.139.513 10.938 5.652 12.958 1.2.472 2.437.695 3.654.695 3.991 0 7.762-2.405 9.312-6.342.34-.865 34.695-86.8 89.003-108.88 5.117-2.081 7.578-7.915 5.498-13.03-2.081-5.117-7.916-7.579-13.032-5.497z"/><path d="m170.01 375.367c-27.239 26.756-67.438 44.708-68.055 44.981-5.055 2.226-7.349 8.128-5.123 13.183 1.649 3.743 5.314 5.973 9.158 5.973 1.346 0 2.714-.273 4.025-.851 1.784-.786 44.038-19.576 74.012-49.019 3.94-3.87 3.996-10.202.125-14.142-3.869-3.94-10.202-3.996-14.142-.125z"/><path d="m303.568 234.831c-5.065-2.206-10.958.113-13.162 5.178-26.905 61.807-68.143 90.982-68.557 91.269-4.534 3.139-5.672 9.356-2.54 13.897 1.94 2.814 5.065 4.325 8.243 4.325 1.957 0 3.935-.573 5.668-1.768 1.873-1.291 46.211-32.396 75.527-99.742 2.203-5.063-.115-10.955-5.179-13.159z"/><path d="m492.059 183.38c-4.431-8.86-9.998-16.25-16.539-21.97-4.954-4.337-8.52-7.682-14.52-10.031v-141.245c0-.014 0-.024 0-.037 0-2.526-.912-4.981-2.633-6.857-1.894-2.064-4.571-3.24-7.373-3.24h-40.005c-.228 0-.411.01-.577.025-4.509.259-8.32 3.517-9.226 7.99-11.061 54.614-64.853 89.087-77.621 96.58-8.405-2.591-17.712-3.251-27.881-1.956-18.367 2.337-35.66 10.531-48.287 16.513-2.072.981-16.814 7.658-22.761 10.283-65.227 28.792-154.559 68.223-196.873 193.25-46.159 136.392.7 184.47 2.717 186.45 1.886 1.851 4.408 2.863 7.005 2.863.58 0 1.163-.051 1.744-.153 156.386-27.689 236.695-112.137 277.208-181.911-.67 8.746-1.02 17.272-1.02 25.544-.01 22.56 2.5 43.56 7.471 62.419 4.031 15.311 9.661 29.2 16.742 41.28 12.491 21.38 25.373 30.08 25.913 30.43 1.65 1.101 3.57 1.681 5.56 1.681 2.111 0 4.141-.65 5.851-1.88 18.892-13.641 36.374-29.94 51.986-48.46 3.551-4.221 3.01-10.54-1.2-14.091-1.81-1.52-4.091-2.359-6.451-2.359-2.95 0-5.74 1.3-7.651 3.56-12.782 15.181-26.943 28.78-42.085 40.431-3.911-3.891-9.791-10.71-15.652-21.12-13.572-24.2-20.462-55.11-20.482-91.89 0-33.67 5.976-71.965 17.697-113.585.05-.21 5.806-21.005 19.027-40.425 7.121-10.52 15.112-18.81 23.743-24.65 10.471-7.05 21.542-10.5 33.854-10.52 5.481 0 11.221.71 17.092 2.12 5.831 1.41 10.911 4.04 15.522 8.05 6.851 5.97 12.461 15.21 16.222 26.72 3.881 11.84 5.921 26.48 5.921 42.34.02 33.74-8.861 72.36-24.993 108.75-1.08 2.44-1.15 5.16-.19 7.65.97 2.49 2.84 4.46 5.28 5.54 1.29.57 2.651.86 4.051.86 3.95 0 7.541-2.34 9.151-5.95 8.731-19.74 15.472-40 20.022-60.2 4.42-19.63 6.671-38.69 6.681-56.65-.019-24.689-4.209-45.599-12.44-62.149zm-169.693 88.096c-25.919 67.382-96.752 184.816-280.698 219.592-3.121-4.791-8.121-14.309-11.263-29.627-4.904-23.904-6.056-66.269 16.306-132.344 39.494-116.695 124.173-154.073 186.004-181.365 6.005-2.651 21.082-9.48 23.248-10.506 29.687-14.065 60.333-25.66 80.2-.126 8.849 11.374 11.909 67.548-13.797 134.376zm29.583-146.657c-2.64-3.394-5.471-6.407-8.486-9.047 21.377-14.197 62.077-46.749 75.427-95.772h20.792c-5.298 32.591-21.547 61.272-48.405 85.384-13.741 12.337-27.26 20.592-35.834 25.209-1.058-2.206-2.224-4.141-3.494-5.774zm50.051 26.135c-6 2.451-12.682 5.845-18.76 10.126-7.566 5.337-14.512 12.041-20.945 19.959.451-11.543-.245-21.925-1.6-30.765 8.84-4.463 25.305-13.559 41.305-28.114zm38-4.129c-3-.343-7.168-.825-10.259-.825h-.13c-2.276 0-5.611.401-7.611.592v-44.361c7-7.997 13-16.421 18-25.218z"/><path d="m426.143 332.5c2.049 0 4.116-.627 5.896-1.929 23.215-16.979 29.824-57.537 30.501-62.105.809-5.459-2.959-10.537-8.417-11.351-5.463-.817-10.547 2.952-11.367 8.409-1.523 10.134-8.54 38.676-22.525 48.905-4.458 3.261-5.429 9.518-2.168 13.975 1.959 2.678 4.999 4.096 8.08 4.096z"/><path d="m375.585 282.061c-5.35-1.368-10.799 1.863-12.165 7.214-.16.628-3.95 15.58-5.88 33.331-2.806 25.81-.354 43.572 7.5 54.3 1.959 2.676 4.998 4.095 8.079 4.094 2.05 0 4.118-.628 5.899-1.931 4.457-3.262 5.426-9.519 2.163-13.976-8.406-11.484-4.113-48.357 1.621-70.873 1.364-5.349-1.867-10.793-7.217-12.159z"/><path d="m441.589 198.003c.554-5.493-3.45-10.395-8.943-10.951-5.495-.556-10.399 3.447-10.958 8.94-1.904 18.726-7.832 42.132-14.09 47.293-4.261 3.514-4.866 9.816-1.352 14.077 1.978 2.397 4.837 3.638 7.721 3.638 2.24 0 4.495-.75 6.358-2.286 15.717-12.961 20.47-52.846 21.264-60.711z"/><circle cx="447.645" cy="398.1" r="10"/></g></svg>