<?xml version="1.0" encoding="iso-8859-1"?>
<!-- Generator: Adobe Illustrator 19.0.0, SVG Export Plug-In . SVG Version: 6.00 Build 0)  -->
<svg version="1.1" id="Capa_1" xmlns="http://www.w3.org/2000/svg" xmlns:xlink="http://www.w3.org/1999/xlink" x="0px" y="0px"
	 viewBox="0 0 512 512" style="enable-background:new 0 0 512 512;" xml:space="preserve">
<g>
	<g>
		<path d="M413.867,443.733H38.4c-4.71,0-8.533,3.814-8.533,8.533C29.867,485.197,56.661,512,89.6,512h273.067
			c32.93,0,59.733-26.803,59.733-59.733C422.4,447.548,418.586,443.733,413.867,443.733z M362.667,494.933H89.6
			c-20.599,0-37.845-14.686-41.805-34.133h356.676C400.512,480.247,383.275,494.933,362.667,494.933z"/>
	</g>
</g>
<g>
	<g>
		<path d="M388.267,247.467H64c-4.71,0-8.533,3.823-8.533,8.533v34.133c0,105.626,85.342,166.579,88.977,169.122
			c1.434,1.007,3.14,1.545,4.89,1.545h153.6c1.749,0,3.456-0.538,4.89-1.545c3.635-2.543,88.977-63.497,88.977-169.122V256
			C396.8,251.29,392.986,247.467,388.267,247.467z M379.733,290.133c0,87.842-66.935,143.778-79.642,153.6H152.175
			c-12.715-9.822-79.642-65.758-79.642-153.6v-25.6h307.2V290.133z"/>
	</g>
</g>
<g>
	<g>
		<path d="M405.333,264.533h-17.067V281.6h17.067c32.93,0,59.733,26.803,59.733,59.733c0,32.93-26.803,59.733-59.733,59.733H345.6
			v17.067h59.733c42.351,0,76.8-34.449,76.8-76.8S447.684,264.533,405.333,264.533z"/>
	</g>
</g>
<g>
	<g>
		<path d="M405.333,298.667h-17.067v17.067h17.067c14.114,0,25.6,11.486,25.6,25.6s-11.486,25.6-25.6,25.6h-42.667V384h42.667
			C428.86,384,448,364.86,448,341.333C448,317.807,428.86,298.667,405.333,298.667z"/>
	</g>
</g>
<g>
	<g>
		<path d="M302.933,0v17.067c0,14.114-11.486,25.6-25.6,25.6h-89.6c-30.583,0-55.467,24.883-55.467,55.467
			c0,30.583,24.883,55.467,55.467,55.467H192c4.702,0,8.533,3.831,8.533,8.533c0,4.702-3.831,8.533-8.533,8.533h-76.8
			c-32.939,0-59.733,26.795-59.733,59.733h17.067c0-23.526,19.14-42.667,42.667-42.667H192c14.114,0,25.6-11.486,25.6-25.6
			s-11.486-25.6-25.6-25.6h-4.267c-21.171,0-38.4-17.229-38.4-38.4s17.229-38.4,38.4-38.4h89.6c23.526,0,42.667-19.14,42.667-42.667
			V0H302.933z"/>
	</g>
</g>
<g>
	<g>
		<path d="M465.067,0v34.133c0,23.526-19.14,42.667-42.667,42.667H302.933c-14.114,0-25.6,11.486-25.6,25.6s11.486,25.6,25.6,25.6
			h34.133c23.526,0,42.667,19.14,42.667,42.667V230.4H396.8v-59.733c0-32.939-26.803-59.733-59.733-59.733h-34.133
			c-4.71,0-8.533-3.831-8.533-8.533c0-4.702,3.823-8.533,8.533-8.533H422.4c32.93,0,59.733-26.795,59.733-59.733V0H465.067z"/>
	</g>
</g>
<g>
</g>
<g>
</g>
<g>
</g>
<g>
</g>
<g>
</g>
<g>
</g>
<g>
</g>
<g>
</g>
<g>
</g>
<g>
</g>
<g>
</g>
<g>
</g>
<g>
</g>
<g>
</g>
<g>
</g>
</svg>
