<?xml version="1.0" encoding="iso-8859-1"?>
<!-- Generator: Adobe Illustrator 19.0.0, SVG Export Plug-In . SVG Version: 6.00 Build 0)  -->
<svg version="1.1" id="Capa_1" xmlns="http://www.w3.org/2000/svg" xmlns:xlink="http://www.w3.org/1999/xlink" x="0px" y="0px"
	 viewBox="0 0 512 512" style="enable-background:new 0 0 512 512;" xml:space="preserve">
<g>
	<g>
		<path d="M332.799,323.465v-32.521l33.988-178.415c0.478-2.5-0.196-5.077-1.809-7.04c-1.63-1.954-4.036-3.089-6.579-3.089H119.466
			c-2.543,0-4.958,1.135-6.571,3.081c-1.621,1.963-2.287,4.548-1.809,7.04l33.98,178.415v32.521l-33.988,178.415
			c-0.478,2.5,0.188,5.086,1.809,7.04c1.621,1.954,4.036,3.089,6.579,3.089H358.4c2.543,0,4.949-1.135,6.571-3.089
			c1.621-1.954,2.287-4.54,1.809-7.04L332.799,323.465z M129.774,494.933l32.205-169.062c0.102-0.538,0.154-1.067,0.154-1.604
			v-34.133c0-0.529-0.051-1.067-0.154-1.596l-32.205-169.071h218.317l-32.205,169.062c-0.102,0.538-0.154,1.067-0.154,1.604v34.133
			c0,0.538,0.051,1.067,0.145,1.596l32.205,169.071H129.774z"/>
	</g>
</g>
<g>
	<g>
		<path d="M362.7,103.561L260.3,43.827c-1.306-0.759-2.79-1.161-4.301-1.161h-34.133c-1.51,0-2.995,0.401-4.301,1.161l-102.4,59.733
			c-3.328,1.946-4.941,5.879-3.934,9.6c0.998,3.721,4.378,6.306,8.235,6.306H358.4c3.857,0,7.236-2.586,8.243-6.306
			C367.641,109.431,366.037,105.506,362.7,103.561z M151.031,102.4l73.139-42.667h29.525l73.139,42.667H151.031z"/>
	</g>
</g>
<g>
	<g>
		<path d="M271.129,3.123C269.508,1.143,267.093,0,264.533,0h-51.2c-2.56,0-4.984,1.143-6.596,3.123
			c-1.621,1.971-2.27,4.574-1.766,7.083l8.533,42.667c0.794,3.994,4.292,6.861,8.363,6.861H256c4.07,0,7.569-2.867,8.363-6.861
			l8.533-42.667C273.399,7.697,272.742,5.094,271.129,3.123z M249.002,42.667h-20.139l-5.12-25.6h30.379L249.002,42.667z"/>
	</g>
</g>
<g>
	<g>
		<path d="M281.6,102.4h-85.333c-4.71,0-8.533,3.823-8.533,8.533v179.2c0,4.719,3.823,8.533,8.533,8.533H281.6
			c4.719,0,8.533-3.814,8.533-8.533v-179.2C290.133,106.223,286.318,102.4,281.6,102.4z M273.066,281.6H204.8V119.467h68.267V281.6z
			"/>
	</g>
</g>
<g>
	<g>
		<path d="M187.733,110.933V281.6H153.6v17.067h42.667c4.71,0,8.533-3.814,8.533-8.533v-179.2H187.733z"/>
	</g>
</g>
<g>
	<g>
		<path d="M290.133,281.6V110.933h-17.067v179.2c0,4.719,3.814,8.533,8.533,8.533h42.667V281.6H290.133z"/>
	</g>
</g>
<g>
	<g>
		<path d="M281.6,315.733h-85.333c-4.71,0-8.533,3.814-8.533,8.533v179.2c0,4.719,3.823,8.533,8.533,8.533H281.6
			c4.719,0,8.533-3.814,8.533-8.533v-179.2C290.133,319.548,286.318,315.733,281.6,315.733z M273.066,494.933H204.8V332.8h68.267
			V494.933z"/>
	</g>
</g>
<g>
	<g>
		<path d="M281.6,315.733c-4.719,0-8.533,3.814-8.533,8.533v179.2h17.067V332.8h34.133v-17.067H281.6z"/>
	</g>
</g>
<g>
	<g>
		<path d="M196.266,315.733H153.6V332.8h34.133v170.667H204.8v-179.2C204.8,319.548,200.977,315.733,196.266,315.733z"/>
	</g>
</g>
<g>
	<g>
		<path d="M83.174,119.467h36.292V102.4h-51.2c-3.055,0-5.888,1.638-7.398,4.292c-1.527,2.654-1.51,5.922,0.043,8.559l75.179,128
			l14.711-8.636L83.174,119.467z"/>
	</g>
</g>
<g>
	<g>
		<path d="M409.6,102.4h-51.2v17.067h51.2c14.114,0,25.6,11.486,25.6,25.6v153.6c0,14.114-11.486,25.6-25.6,25.6h-18.688
			c-8.516,0-15.445-6.929-15.445-15.454c-0.009-7.083,4.796-13.227,11.725-14.933l9.438-2.372
			c7.748-1.92,13.193-9.097,12.971-16.819V162.133c0-9.412-7.654-17.067-17.067-17.067h-39.851v17.067h39.851l-0.034,112.819
			l-9.429,2.372c-14.532,3.584-24.678,16.538-24.67,31.497c0,17.929,14.583,32.512,32.512,32.512H409.6
			c23.526,0,42.667-19.14,42.667-42.667v-153.6C452.266,121.54,433.126,102.4,409.6,102.4z"/>
	</g>
</g>
<g>
</g>
<g>
</g>
<g>
</g>
<g>
</g>
<g>
</g>
<g>
</g>
<g>
</g>
<g>
</g>
<g>
</g>
<g>
</g>
<g>
</g>
<g>
</g>
<g>
</g>
<g>
</g>
<g>
</g>
</svg>
