<?xml version="1.0" encoding="iso-8859-1"?>
<!-- Generator: Adobe Illustrator 19.0.0, SVG Export Plug-In . SVG Version: 6.00 Build 0)  -->
<svg version="1.1" id="Capa_1" xmlns="http://www.w3.org/2000/svg" xmlns:xlink="http://www.w3.org/1999/xlink" x="0px" y="0px"
	 viewBox="0 0 512 512" style="enable-background:new 0 0 512 512;" xml:space="preserve">
<g>
	<g>
		<path d="M349.867,273.067H110.933c-4.71,0-8.533,3.814-8.533,8.533v187.733c0,4.719,3.823,8.533,8.533,8.533h238.933
			c4.719,0,8.533-3.814,8.533-8.533V281.6C358.4,276.881,354.586,273.067,349.867,273.067z M341.333,460.8H119.467V290.133h221.867
			V460.8z"/>
	</g>
</g>
<g>
	<g>
		<path d="M366.933,460.8H93.867c-14.114,0-25.6,11.486-25.6,25.6s11.486,25.6,25.6,25.6h273.067c14.114,0,25.6-11.486,25.6-25.6
			S381.047,460.8,366.933,460.8z M366.933,494.933H93.867c-4.702,0-8.533-3.823-8.533-8.533s3.831-8.533,8.533-8.533h273.067
			c4.71,0,8.533,3.823,8.533,8.533S371.644,494.933,366.933,494.933z"/>
	</g>
</g>
<g>
	<g>
		<path d="M366.933,238.933H93.867c-14.114,0-25.6,11.486-25.6,25.6s11.486,25.6,25.6,25.6h273.067c14.114,0,25.6-11.486,25.6-25.6
			S381.047,238.933,366.933,238.933z M366.933,273.067H93.867c-4.702,0-8.533-3.823-8.533-8.533c0-4.71,3.831-8.533,8.533-8.533
			h273.067c4.71,0,8.533,3.823,8.533,8.533C375.467,269.244,371.644,273.067,366.933,273.067z"/>
	</g>
</g>
<g>
	<g>
		<path d="M315.733,324.267H145.067c-4.71,0-8.533,3.814-8.533,8.533v102.4c0,4.719,3.823,8.533,8.533,8.533h170.667
			c4.719,0,8.533-3.814,8.533-8.533V332.8C324.267,328.081,320.452,324.267,315.733,324.267z M307.2,426.667H153.6v-85.333h153.6
			V426.667z"/>
	</g>
</g>
<g>
	<g>
		<path d="M230.4,358.4c-14.114,0-25.6,11.486-25.6,25.6s11.486,25.6,25.6,25.6S256,398.114,256,384S244.514,358.4,230.4,358.4z
			 M230.4,392.533c-4.702,0-8.533-3.823-8.533-8.533s3.831-8.533,8.533-8.533c4.702,0,8.533,3.823,8.533,8.533
			S235.102,392.533,230.4,392.533z"/>
	</g>
</g>
<g>
	<g>
		<path d="M332.8,136.533H128c-4.71,0-8.533,3.823-8.533,8.533V179.2c0,42.342,34.458,76.8,76.8,76.8h68.267
			c42.351,0,76.8-34.458,76.8-76.8v-34.133C341.333,140.356,337.519,136.533,332.8,136.533z M324.267,179.2
			c0,32.939-26.803,59.733-59.733,59.733h-68.267c-32.939,0-59.733-26.795-59.733-59.733v-25.6h187.733V179.2z"/>
	</g>
</g>
<g>
	<g>
		<path d="M247.467,68.267h-34.133c-4.71,0-8.533,3.823-8.533,8.533v68.267c0,4.71,3.823,8.533,8.533,8.533h34.133
			c4.71,0,8.533-3.823,8.533-8.533V76.8C256,72.09,252.177,68.267,247.467,68.267z M238.933,136.533h-17.067v-51.2h17.067V136.533z"
			/>
	</g>
</g>
<g>
	<g>
		<path d="M392.533,42.667v25.6h-102.4c-3.234,0-6.187,1.826-7.629,4.719L267.793,102.4h-80.06v17.067h85.333
			c3.234,0,6.187-1.826,7.629-4.719l14.711-29.414h105.66c4.719,0,8.533-3.823,8.533-8.533V42.667H392.533z"/>
	</g>
</g>
<g>
	<g>
		<path d="M418.133,0H384c-14.114,0-25.6,11.486-25.6,25.6s11.486,25.6,25.6,25.6h34.133c14.114,0,25.6-11.486,25.6-25.6
			S432.247,0,418.133,0z M418.133,34.133H384c-4.71,0-8.533-3.831-8.533-8.533c0-4.702,3.823-8.533,8.533-8.533h34.133
			c4.71,0,8.533,3.831,8.533,8.533C426.667,30.302,422.844,34.133,418.133,34.133z"/>
	</g>
</g>
<g>
</g>
<g>
</g>
<g>
</g>
<g>
</g>
<g>
</g>
<g>
</g>
<g>
</g>
<g>
</g>
<g>
</g>
<g>
</g>
<g>
</g>
<g>
</g>
<g>
</g>
<g>
</g>
<g>
</g>
</svg>
