<?xml version="1.0" encoding="iso-8859-1"?>
<!-- Generator: Adobe Illustrator 19.0.0, SVG Export Plug-In . SVG Version: 6.00 Build 0)  -->
<svg version="1.1" id="Capa_1" xmlns="http://www.w3.org/2000/svg" xmlns:xlink="http://www.w3.org/1999/xlink" x="0px" y="0px"
	 viewBox="0 0 512 512" style="enable-background:new 0 0 512 512;" xml:space="preserve">
<g>
	<g>
		<path d="M293.238,204.8c-112.929,0-204.8,91.871-204.8,204.8v93.091c0,5.148,4.17,9.309,9.309,9.309h390.982
			c5.148,0,9.309-4.161,9.309-9.309V409.6C498.038,296.671,406.166,204.8,293.238,204.8z M479.419,493.382H107.056V409.6
			c0-102.661,83.521-186.182,186.182-186.182S479.419,306.939,479.419,409.6V493.382z"/>
	</g>
</g>
<g>
	<g>
		<path d="M109.783,332.4l13.163-13.163l-46.545-46.545c-3.64-3.64-9.523-3.64-13.163,0l-46.545,46.545
			c-3.64,3.64-3.64,9.523,0,13.163l74.473,74.473l13.163-13.163l-67.891-67.891l33.382-33.382L109.783,332.4z"/>
	</g>
</g>
<g>
	<g>
		<rect x="162.91" y="251.345" width="260.655" height="18.618"/>
	</g>
</g>
<g>
	<g>
		<path d="M293.238,130.327c-25.665,0-46.545,20.88-46.545,46.545s20.88,46.545,46.545,46.545s46.545-20.88,46.545-46.545
			S318.903,130.327,293.238,130.327z M293.238,204.8c-15.397,0-27.927-12.53-27.927-27.927s12.53-27.927,27.927-27.927
			c15.397,0,27.927,12.53,27.927,27.927S308.635,204.8,293.238,204.8z"/>
	</g>
</g>
<g>
	<g>
		<path d="M293.238,37.236c-76.995,0-139.636,62.641-139.636,139.636v83.782h18.618v-83.782
			c0-66.728,54.291-121.018,121.018-121.018s121.018,54.291,121.018,121.018v83.782h18.618v-83.782
			C432.874,99.877,370.233,37.236,293.238,37.236z"/>
	</g>
</g>
<g>
	<g>
		<path d="M293.238,0c-97.531,0-176.873,79.341-176.873,176.873V307.2h18.618V176.873c0-87.263,70.991-158.255,158.255-158.255
			s158.255,70.991,158.255,158.255V307.2h18.618V176.873C470.11,79.341,390.769,0,293.238,0z"/>
	</g>
</g>
<g>
	<g>
		<rect x="125.674" y="204.8" width="37.236" height="18.618"/>
	</g>
</g>
<g>
	<g>
		<rect x="423.565" y="204.8" width="37.236" height="18.618"/>
	</g>
</g>
<g>
</g>
<g>
</g>
<g>
</g>
<g>
</g>
<g>
</g>
<g>
</g>
<g>
</g>
<g>
</g>
<g>
</g>
<g>
</g>
<g>
</g>
<g>
</g>
<g>
</g>
<g>
</g>
<g>
</g>
</svg>
