<svg height="480pt" viewBox="0 0 480.11901 480" width="480pt" xmlns="http://www.w3.org/2000/svg"><path d="m174.855469 70.191406 9.640625 12.800782c4.53125-3.410157 9.347656-6.414063 14.398437-8.984376l-7.277343-14.25c-5.878907 2.984376-11.488282 6.476563-16.761719 10.433594zm0 0"/><path d="m141.601562 114.632812c-3.71875 10.632813-5.609374 21.816407-5.601562 33.078126h16c-.003906-9.464844 1.589844-18.863282 4.71875-27.800782 3.503906-9.84375 9.003906-18.859375 16.152344-26.480468l-11.726563-10.878907c-8.65625 9.230469-15.3125 20.15625-19.542969 32.082031zm0 0"/><path d="m289.878906 72.054688-7.757812 13.984374c22.441406 13.855469 36.328125 38.148438 36.878906 64.519532-.003906 5.300781-.589844 10.582031-1.742188 15.753906l15.621094 3.472656c1.402344-6.304687 2.113282-12.742187 2.121094-19.203125-.429688-32.222656-17.5-61.929687-45.121094-78.527343zm0 0"/><path d="m272 160.054688h16v16h-16zm0 0"/><path d="m232 192.054688h16v16h-16zm0 0"/><path d="m289.640625 468.144531c16.675781 7.964844 34.9375 12.050781 53.414063 11.960938 14.527343-.046875 28.957031-2.355469 42.769531-6.84375l62.175781-20.070313c2.433594-.792968 4.34375-2.699218 5.136719-5.136718l20.078125-62.175782c10.734375-31.539062 8.898437-66.003906-5.125-96.222656-20.773438-43.105469-63.558594-71.308594-111.363282-73.410156 19.390626-31.214844 24.605469-69.203125 14.339844-104.492188-10.261718-35.285156-35.039062-64.550781-68.144531-80.5l-59.28125-30.316406c-2.285156-1.171875-4.996094-1.171875-7.28125 0l-59.261719 30.316406c-44.886718 21.375-73.371094 66.769532-73.097656 116.480469.148438 73.109375 59.449219 132.304687 132.558594 132.320313h.511718c-5.046874 7.664062-9.253906 15.851562-12.550781 24.417968l14.960938 5.6875c4.503906-11.878906 10.996093-22.90625 19.199219-32.609375.285156-.273437.550781-.570312.800781-.878906 1.851562-2.261719 3.824219-4.425781 5.902343-6.480469l4.722657-4.71875c36.847656-38.015625 95.152343-45.339844 140.257812-17.617187 45.105469 27.722656 64.90625 83.050781 47.628907 133.097656l-18.792969 58.300781-58.253907 18.816406c-40.363281 14.351563-85.378906 4.0625-115.496093-26.398437l-11.3125 11.3125c10.347656 10.308594 22.347656 18.8125 35.503906 25.160156zm-30.816406-213.984375-4.71875 4.71875c-1.753907 1.746094-3.203125 3.351563-4.632813 4.929688-1.992187.109375-4 .246094-6.03125.246094h-6.882812c-37.730469.066406-73.148438-18.167969-95.019532-48.914063-21.867187-30.742187-27.472656-70.183594-15.035156-105.804687 10.308594-27.957032 31.042969-50.835938 57.855469-63.832032l55.640625-28.464844 55.65625 28.472657c30.71875 14.898437 53.160156 42.761719 61.164062 75.949219 8.003907 33.1875.738282 68.21875-19.8125 95.484374-29.546874 3.105469-57.140624 16.242188-78.183593 37.214844zm0 0"/><path d="m333.113281 444.457031c19.316407.054688 37.855469-7.625 51.480469-21.320312l38.484375-38.488281c22.898437-22.886719 27.929687-58.140626 12.351563-86.519532-15.574219-28.378906-48.019532-43.0625-79.621094-36.035156l-71.746094 15.945312c-3.035156.671876-5.40625 3.042969-6.078125 6.082032l-15.945313 71.742187c-4.789062 21.558594.464844 44.121094 14.28125 61.347657 13.820313 17.226562 34.710938 27.246093 56.792969 27.246093zm-55.449219-85.128906 14.832032-66.777344 66.777344-14.832031c24.65625-5.488281 49.972656 5.964844 62.128906 28.109375 12.15625 22.140625 8.230468 49.648437-9.632813 67.507813l-38.488281 38.488281c-17.859375 17.863281-45.367188 21.792969-67.511719 9.632812-22.140625-12.15625-33.59375-37.472656-28.105469-62.128906zm0 0"/><path d="m306.339844 317.710938 11.3125-11.3125 64.003906 64-11.316406 11.316406zm0 0"/><path d="m0 390.511719c.90625 50.234375 42.273438 90.273437 92.511719 89.542969h70.976562c50.238281.730468 91.605469-39.308594 92.511719-89.542969-.085938-30.992188-16.378906-59.679688-42.953125-75.625l-80.863281-49.65625c-2.566406-1.574219-5.800782-1.574219-8.367188 0l-80.863281 49.65625c-26.574219 15.945312-42.8671875 44.632812-42.953125 75.625zm51.328125-61.984375 76.671875-47.078125 76.671875 47.078125c21.820313 13.046875 35.222656 36.558594 35.328125 61.984375-.90625 41.398437-35.109375 74.277343-76.511719 73.542969h-70.976562c-41.402344.734374-75.605469-32.144532-76.511719-73.542969.105469-25.425781 13.507812-48.9375 35.328125-61.984375zm0 0"/><path d="m65.859375 340.242188 13.589844-8.34375 8.375 13.640624-13.589844 8.34375zm0 0"/><path d="m41.601562 417.710938 13.878907-8c-9.179688-15.988282-5.835938-36.230469 8-48.414063l-10.753907-11.855469c-11.664062 10.464844-18.351562 25.386719-18.398437 41.0625.011719 9.546875 2.519531 18.925782 7.273437 27.207032zm0 0"/><path d="m120 312.054688h16v128h-16zm0 0"/></svg>