<svg height="512" viewBox="0 0 512 512" width="512" xmlns="http://www.w3.org/2000/svg"><g id="Outline"><path d="m495.638 287.892-9.764-107.41a170.493 170.493 0 0 0 -154.357-154.355l-107.409-9.765a87.89 87.89 0 0 0 -70.3 25.45 86.277 86.277 0 0 0 -25.546 61.975 87.9 87.9 0 0 0 26.077 61.87l122.838 122.834-52.866 63.441a219.764 219.764 0 0 0 -36.37 61.936l-6.776 17.616a76.136 76.136 0 0 1 -70.639 48.516h-2.842a75.683 75.683 0 0 1 -23.934-147.483 219.308 219.308 0 0 0 72.622-40.817l55.4-46.879-10.335-12.215-55.4 46.879a203.338 203.338 0 0 1 -67.346 37.849 91.684 91.684 0 0 0 28.993 178.666h2.842a91.685 91.685 0 0 0 85.574-58.771l6.776-17.617a203.826 203.826 0 0 1 33.724-57.438l51.934-62.322 57.806 57.805a87.9 87.9 0 0 0 61.87 26.077h.578a86.279 86.279 0 0 0 61.4-25.548 87.9 87.9 0 0 0 25.45-70.294zm-36.764 58.981a70.388 70.388 0 0 1 -50.086 20.863h-.471a71.291 71.291 0 0 1 -31.737-7.679 57.587 57.587 0 0 0 38.575-28.478l-14.289-7.2c-.544 1.057-13.426 25.233-45 20.175l-40.7-40.7c14.692-4.994 27.572-15.85 37.864-32.079l-13.512-8.568c-10.3 16.239-22.94 25.412-37.621 27.378l-125.846-125.848c.511-16.67 4.98-30.016 13.306-39.7l-12.133-10.43c-8.108 9.432-13.365 21.226-15.745 35.179a71.712 71.712 0 0 1 -17.214-46.1 70.389 70.389 0 0 1 20.861-50.556 71.936 71.936 0 0 1 57.534-20.83l107.409 9.765a154.493 154.493 0 0 1 139.87 139.871l9.761 107.405a71.935 71.935 0 0 1 -20.826 57.532z"/><path d="m161.479 328h85.041v15.999h-85.041z" transform="matrix(.658 -.753 .753 .658 -183.203 268.281)"/><path d="m56 384h16v16h-16z"/><path d="m72 424h16v16h-16z"/><path d="m97.072 333.5h51.856v16h-51.856z" transform="matrix(.771 -.636 .636 .771 -189.204 156.351)"/><path d="m169.308 288h35.384v16.001h-35.384z" transform="matrix(.735 -.678 .678 .735 -151.179 205.337)"/><path d="m144 392h16v16h-16z"/><path d="m400 152h16v16h-16z"/><path d="m424 192h16v16h-16z"/><path d="m440 296h16v16h-16z"/><path d="m264 128h16v16h-16z"/><path d="m304 88h16v16h-16z"/><path d="m206.431 96.155a51.608 51.608 0 0 0 -17.727 8.117l9.085 13.17a37.413 37.413 0 0 1 11.841-5.61l-1.63-7.832z"/><path d="m344.377 308.2 9.251 13.055a67.352 67.352 0 0 0 18.34-19.659l-13.936-7.862a51.683 51.683 0 0 1 -13.655 14.466z"/><path d="m367.246 240-15.489-4.013a102.62 102.62 0 0 1 -5.83 15.451l14.5 6.754a116.424 116.424 0 0 0 6.819-18.192z"/></g></svg>