<svg width="32" height="32" xmlns="http://www.w3.org/2000/svg">

 <g>
  <title>background</title>
  <rect fill="none" id="canvas_background" height="402" width="582" y="-1" x="-1"/>
 </g>
 <g>
  <title>Layer 1</title>
  <path fill="#ffffff" id="svg_2" d="m16,5.033c-4.978,0.037 -9,4.079 -9,9.063c0,2.429 1.036,4.779 2.559,6.427l6.443,6.443l6.419,-6.421c1.535,-1.648 2.579,-4.007 2.579,-6.449c-0.001,-4.983 -4.023,-9.026 -9,-9.063zm4.98,14.126l-4.978,4.979l-4.999,-4.999c-1.255,-1.373 -2.003,-3.255 -2.003,-5.043c0,-3.861 3.139,-7.026 7,-7.062c3.86,0.036 6.999,3.202 7,7.062c0,1.801 -0.755,3.691 -2.02,5.063z"/>
  <path fill="#ffffff" id="svg_3" d="m16,9.967c-2.246,0 -4.067,1.821 -4.067,4.067c0,2.246 1.821,4.067 4.067,4.067s4.067,-1.821 4.067,-4.067c0,-2.247 -1.821,-4.067 -4.067,-4.067zm0,6.133c-1.14,0 -2.067,-0.927 -2.067,-2.067c0,-1.14 0.927,-2.067 2.067,-2.067c1.14,0 2.067,0.927 2.067,2.067c0,1.14 -0.927,2.067 -2.067,2.067z"/>
 </g>
</svg>