<svg height="476pt" viewBox="0 0 476.87972 476" width="476pt" xmlns="http://www.w3.org/2000/svg"><path d="m316.878906 32.441406c0-17.675781-14.324218-32-32-32h-88c-1.730468 0-3.414062.558594-4.800781 1.597656l-32 24c-2.011719 1.511719-3.199219 3.882813-3.199219 6.402344 0 17.671875 14.328125 32 32 32h96c17.675782 0 32-14.328125 32-32zm-143.574218 3.679688 26.238281-19.679688h85.335937c8.835938 0 16 7.160156 16 16 0 8.835938-7.164062 16-16 16h-96c-7.421875 0-13.867187-5.101562-15.574218-12.320312zm0 0"/><path d="m329 81.40625c-.023438 8.496094 3.351562 16.644531 9.375 22.632812l67.878906 67.878907c8.054688 8.234375 19.914063 11.507812 31.046875 8.566406 11.136719-2.941406 19.835938-11.636719 22.773438-22.773437 2.9375-11.136719-.335938-22.996094-8.570313-31.046876l-62.222656-62.222656c-1.222656-1.226562-2.808594-2.019531-4.523438-2.265625l-39.597656-5.65625c-2.492187-.371093-5.015625.46875-6.785156 2.265625-6.023438 5.984375-9.398438 14.132813-9.375 22.621094zm18.398438-8.40625 32.480468 4.640625 60.335938 60.335937c6.25 6.246094 6.253906 16.378907.003906 22.628907-6.246094 6.246093-16.378906 6.25-22.628906.003906l-67.910156-67.882813c-5.253907-5.242187-6.210938-13.410156-2.3125-19.726562zm0 0"/><path d="m134.253906 179.917969c8.054688 8.234375 19.914063 11.507812 31.046875 8.566406 11.136719-2.941406 19.835938-11.636719 22.773438-22.773437 2.9375-11.136719-.335938-22.996094-8.570313-31.046876l-62.222656-62.222656c-1.222656-1.226562-2.808594-2.019531-4.523438-2.265625l-39.597656-5.65625c-2.492187-.363281-5.011718.476563-6.785156 2.265625-12.496094 12.496094-12.496094 32.757813 0 45.253906zm-58.878906-98.917969 32.480469 4.640625 60.335937 60.335937c6.25 6.246094 6.25 16.378907.003906 22.628907-6.246093 6.246093-16.378906 6.25-22.628906.003906l-67.886718-67.882813c-5.253907-5.242187-6.210938-13.410156-2.3125-19.726562zm0 0"/><path d="m320.359375 105.816406c-12.667969-12.074218-32.585937-12.074218-45.253906 0l-62.226563 62.222656c-1.222656 1.222657-2.015625 2.808594-2.261718 4.519532l-5.65625 39.601562c-.355469 2.492188.484374 5.003906 2.261718 6.785156 12.496094 12.496094 32.761719 12.496094 45.257813 0l67.878906-67.882812c12.492187-12.496094 12.492187-32.75 0-45.246094zm-11.3125 33.933594-67.878906 67.890625c-5.308594 5.117187-13.378907 6.0625-19.726563 2.3125l4.636719-32.480469 60.335937-60.335937c6.332032-6.046875 16.300782-6.046875 22.632813 0 6.242187 6.246093 6.242187 16.367187 0 22.613281zm0 0"/><path d="m25 308.320312c8.492188.023438 16.636719-3.351562 22.625-9.375l67.878906-67.882812c12.492188-12.496094 12.492188-32.75 0-45.246094-12.65625-12.097656-32.589844-12.097656-45.25 0l-62.222656 62.222656c-1.222656 1.222657-2.015625 2.808594-2.261719 4.519532l-5.691406 39.601562c-.351563 2.492188.484375 5.003906 2.265625 6.785156 5.992188 6.03125 14.152344 9.410157 22.65625 9.375zm-3.777344-50.855468 60.34375-60.335938c6.332032-6.046875 16.296875-6.046875 22.625 0 6.246094 6.246094 6.246094 16.375 0 22.621094l-67.878906 67.890625c-5.300781 5.132813-13.382812 6.082031-19.730469 2.3125zm0 0"/><path d="m228.878906 256.441406h-88c-1.730468 0-3.414062.558594-4.800781 1.597656l-32 24c-2.011719 1.511719-3.199219 3.882813-3.199219 6.402344 0 17.671875 14.328125 32 32 32h96c17.675782 0 32-14.328125 32-32 0-17.675781-14.324218-32-32-32zm0 48h-96c-7.421875 0-13.867187-5.101562-15.574218-12.320312l26.238281-19.679688h85.335937c8.835938 0 16 7.160156 16 16 0 8.835938-7.164062 16-16 16zm0 0"/><path d="m444.878906 208.441406h-96c-17.671875 0-32 14.324219-32 32 0 17.671875 14.328125 32 32 32h88c1.730469 0 3.417969-.5625 4.800782-1.601562l32-24c2.015624-1.511719 3.199218-3.882813 3.199218-6.398438 0-17.675781-14.324218-32-32-32zm-10.664062 48h-85.335938c-8.835937 0-16-7.164062-16-16 0-8.839844 7.164063-16 16-16h96c7.421875-.003906 13.871094 5.097656 15.578125 12.320313zm0 0"/><path d="m44.878906 376.441406c0 17.671875 14.328125 32 32 32h88c1.730469 0 3.417969-.5625 4.800782-1.601562l32-24c2.015624-1.511719 3.199218-3.882813 3.199218-6.398438 0-17.675781-14.324218-32-32-32h-96c-17.671875 0-32 14.324219-32 32zm143.578125-3.679687-26.242187 19.679687h-85.335938c-8.835937 0-16-7.164062-16-16 0-8.839844 7.164063-16 16-16h96c7.421875-.003906 13.871094 5.097656 15.578125 12.320313zm0 0"/><path d="m308.878906 376.441406c.023438-8.492187-3.351562-16.640625-9.375-22.625-12.65625-12.097656-32.589844-12.097656-45.25 0l-62.222656 62.222656c-1.222656 1.222657-2.015625 2.808594-2.261719 4.519532l-5.65625 39.601562c-.355469 2.492188.484375 5.003906 2.261719 6.785156 12.496094 12.492188 32.753906 12.492188 45.25 0l67.878906-67.882812c6.023438-5.984375 9.398438-14.132812 9.375-22.621094zm-20.6875 11.308594-67.878906 67.890625c-5.304688 5.128906-13.382812 6.078125-19.730469 2.3125l4.640625-32.480469 60.34375-60.335937c6.332032-6.046875 16.296875-6.046875 22.625 0 6.246094 6.246093 6.246094 16.375 0 22.625zm0 0"/><path d="m357.28125 291.59375c-1.222656-1.226562-2.808594-2.019531-4.523438-2.265625l-39.597656-5.65625c-2.492187-.375-5.015625.46875-6.785156 2.265625-12.492188 12.496094-12.492188 32.75 0 45.246094l67.878906 67.878906c8.035156 8.320312 19.933594 11.65625 31.121094 8.726562 11.1875-2.925781 19.925781-11.664062 22.855469-22.851562 2.929687-11.191406-.40625-23.085938-8.726563-31.121094zm50.910156 96.15625c-6.328125 6.046875-16.292968 6.046875-22.625 0l-67.886718-67.878906c-5.253907-5.242188-6.210938-13.410156-2.3125-19.726563l32.480468 4.640625 60.335938 60.34375c6.246094 6.246094 6.246094 16.375 0 22.621094zm0 0"/></svg>