<?xml version="1.0" encoding="iso-8859-1"?>
<!-- Generator: Adobe Illustrator 19.0.0, SVG Export Plug-In . SVG Version: 6.00 Build 0)  -->
<svg version="1.1" id="Capa_1" xmlns="http://www.w3.org/2000/svg" xmlns:xlink="http://www.w3.org/1999/xlink" x="0px" y="0px"
	 viewBox="0 0 512 512" style="enable-background:new 0 0 512 512;" xml:space="preserve">
<g>
	<g>
		<path d="M503.467,290.133H8.533c-4.71,0-8.533,3.814-8.533,8.533V332.8c0,4.719,3.823,8.533,8.533,8.533h494.933
			c4.719,0,8.533-3.814,8.533-8.533v-34.133C512,293.948,508.186,290.133,503.467,290.133z M494.933,324.267H17.067V307.2h477.867
			V324.267z"/>
	</g>
</g>
<g>
	<g>
		<rect x="247.467" y="118.016" width="17.067" height="180.651"/>
	</g>
</g>
<g>
	<g>
		<path d="M307.2,0H204.8c-14.114,0-25.6,11.486-25.6,25.6v25.634c0.034,6.827,2.714,13.235,7.526,18.031l63.232,63.317
			c1.604,1.604,3.772,2.5,6.042,2.5c2.27,0,4.437-0.896,6.042-2.509l63.215-63.3c4.847-4.821,7.518-11.23,7.543-18.074V25.6
			C332.8,11.486,321.314,0,307.2,0z M315.733,51.166c-0.009,2.278-0.905,4.412-2.526,6.025c0,0.008-0.009,0.017-0.017,0.017
			L256,114.475l-57.216-57.293c-1.613-1.604-2.509-3.746-2.517-5.982V25.6c0-4.702,3.831-8.533,8.533-8.533h102.4
			c4.71,0,8.533,3.831,8.533,8.533V51.166z"/>
	</g>
</g>
<g>
	<g>
		<path d="M51.2,460.8c-14.114,0-25.6,11.486-25.6,25.6S37.086,512,51.2,512s25.6-11.486,25.6-25.6S65.314,460.8,51.2,460.8z
			 M51.2,494.933c-4.702,0-8.533-3.823-8.533-8.533s3.831-8.533,8.533-8.533c4.702,0,8.533,3.823,8.533,8.533
			S55.902,494.933,51.2,494.933z"/>
	</g>
</g>
<g>
	<g>
		<path d="M460.8,460.8c-14.114,0-25.6,11.486-25.6,25.6s11.486,25.6,25.6,25.6c14.114,0,25.6-11.486,25.6-25.6
			S474.914,460.8,460.8,460.8z M460.8,494.933c-4.71,0-8.533-3.823-8.533-8.533s3.823-8.533,8.533-8.533s8.533,3.823,8.533,8.533
			S465.51,494.933,460.8,494.933z"/>
	</g>
</g>
<g>
	<g>
		<path d="M211.516,222.771l-15.249-7.629v-28.86c0-4.71-3.823-8.533-8.533-8.533H68.267c-4.71,0-8.533,3.823-8.533,8.533v28.86
			l-15.249,7.62c-11.631,5.811-18.867,17.493-18.884,30.507v45.397h17.067v-45.38c0.009-6.502,3.627-12.348,9.446-15.249
			l19.968-9.984c2.893-1.451,4.719-4.403,4.719-7.637v-25.6h102.4v25.6c0,3.234,1.826,6.187,4.719,7.629l19.968,9.984
			c5.82,2.91,9.438,8.755,9.446,15.241v45.397H230.4v-45.406C230.383,240.265,223.147,228.582,211.516,222.771z"/>
	</g>
</g>
<g>
	<g>
		<path d="M213.333,332.8v76.8c0,9.412-7.654,17.067-17.067,17.067H59.733c-9.412,0-17.067-7.654-17.067-17.067v-68.267H25.6V409.6
			c0,18.825,15.309,34.133,34.133,34.133h136.533c18.825,0,34.133-15.309,34.133-34.133v-76.8H213.333z"/>
	</g>
</g>
<g>
	<g>
		<path d="M162.133,92.416H93.867c-23.526,0-42.667,19.14-42.667,42.667v51.2c0,4.71,3.823,8.533,8.533,8.533h136.533
			c4.71,0,8.533-3.823,8.533-8.533v-51.2C204.8,111.556,185.66,92.416,162.133,92.416z M187.733,177.749H68.267v-42.667
			c0-14.114,11.486-25.6,25.6-25.6h68.267c14.114,0,25.6,11.486,25.6,25.6V177.749z"/>
	</g>
</g>
<g>
	<g>
		<path d="M204.8,177.749H51.2c-4.71,0-8.533,3.823-8.533,8.533c0,4.71,3.823,8.533,8.533,8.533h153.6
			c4.71,0,8.533-3.823,8.533-8.533C213.333,181.572,209.51,177.749,204.8,177.749z"/>
	</g>
</g>
<g>
	<g>
		<rect x="119.467" y="126.549" width="17.067" height="17.067"/>
	</g>
</g>
<g>
	<g>
		<path d="M467.516,222.771l-15.249-7.629v-28.86c0-4.71-3.814-8.533-8.533-8.533H324.267c-4.719,0-8.533,3.823-8.533,8.533v28.86
			l-15.249,7.62c-11.622,5.811-18.859,17.493-18.884,30.507v45.397h17.067v-45.372c0.009-6.511,3.627-12.356,9.446-15.258
			l19.968-9.984c2.893-1.451,4.719-4.403,4.719-7.637v-25.6h102.4v25.6c0,3.234,1.826,6.187,4.719,7.629l19.968,9.984
			c5.811,2.91,9.438,8.755,9.446,15.241v45.397H486.4v-45.406C486.374,240.265,479.138,228.582,467.516,222.771z"/>
	</g>
</g>
<g>
	<g>
		<path d="M469.333,332.8v76.8c0,9.412-7.654,17.067-17.067,17.067H315.733c-9.412,0-17.067-7.654-17.067-17.067v-76.8H281.6v76.8
			c0,18.825,15.309,34.133,34.133,34.133h136.533c18.825,0,34.133-15.309,34.133-34.133v-76.8H469.333z"/>
	</g>
</g>
<g>
	<g>
		<path d="M418.133,92.416h-68.267c-23.526,0-42.667,19.14-42.667,42.667v51.2c0,4.71,3.814,8.533,8.533,8.533h136.533
			c4.719,0,8.533-3.823,8.533-8.533v-51.2C460.8,111.556,441.66,92.416,418.133,92.416z M443.733,177.749H324.267v-42.667
			c0-14.114,11.486-25.6,25.6-25.6h68.267c14.114,0,25.6,11.486,25.6,25.6V177.749z"/>
	</g>
</g>
<g>
	<g>
		<path d="M460.8,177.749H307.2c-4.719,0-8.533,3.823-8.533,8.533c0,4.71,3.814,8.533,8.533,8.533h153.6
			c4.719,0,8.533-3.823,8.533-8.533C469.333,181.572,465.519,177.749,460.8,177.749z"/>
	</g>
</g>
<g>
	<g>
		<rect x="375.467" y="126.549" width="17.067" height="17.067"/>
	</g>
</g>
<g>
	<g>
		<rect x="341.333" y="143.616" width="17.067" height="17.067"/>
	</g>
</g>
<g>
	<g>
		<rect x="409.6" y="143.616" width="17.067" height="17.067"/>
	</g>
</g>
<g>
	<g>
		<path d="M503.467,426.667H8.533c-4.71,0-8.533,3.814-8.533,8.533v34.133c0,4.719,3.823,8.533,8.533,8.533h494.933
			c4.719,0,8.533-3.814,8.533-8.533V435.2C512,430.481,508.186,426.667,503.467,426.667z M494.933,460.8H17.067v-17.067h477.867
			V460.8z"/>
	</g>
</g>
<g>
	<g>
		<rect x="68.267" y="332.8" width="17.067" height="76.8"/>
	</g>
</g>
<g>
	<g>
		<rect x="170.667" y="332.8" width="17.067" height="76.8"/>
	</g>
</g>
<g>
	<g>
		<rect x="119.467" y="332.8" width="17.067" height="76.8"/>
	</g>
</g>
<g>
	<g>
		<rect x="375.467" y="332.8" width="17.067" height="76.8"/>
	</g>
</g>
<g>
	<g>
		<rect x="324.267" y="332.8" width="17.067" height="76.8"/>
	</g>
</g>
<g>
	<g>
		<rect x="426.667" y="332.8" width="17.067" height="76.8"/>
	</g>
</g>
<g>
	<g>
		<rect x="68.267" y="246.016" width="17.067" height="52.651"/>
	</g>
</g>
<g>
	<g>
		<rect x="170.667" y="246.016" width="17.067" height="52.651"/>
	</g>
</g>
<g>
	<g>
		<rect x="119.467" y="246.016" width="17.067" height="52.651"/>
	</g>
</g>
<g>
	<g>
		<rect x="375.467" y="246.016" width="17.067" height="52.651"/>
	</g>
</g>
<g>
	<g>
		<rect x="324.267" y="246.016" width="17.067" height="52.651"/>
	</g>
</g>
<g>
	<g>
		<rect x="426.667" y="246.016" width="17.067" height="52.651"/>
	</g>
</g>
<g>
	<g>
		<rect x="247.467" y="332.8" width="17.067" height="102.4"/>
	</g>
</g>
<g>
</g>
<g>
</g>
<g>
</g>
<g>
</g>
<g>
</g>
<g>
</g>
<g>
</g>
<g>
</g>
<g>
</g>
<g>
</g>
<g>
</g>
<g>
</g>
<g>
</g>
<g>
</g>
<g>
</g>
</svg>
