<svg height="512" viewBox="0 0 58 60" width="512" xmlns="http://www.w3.org/2000/svg"><g id="Page-1" fill="none" fill-rule="evenodd"><g id="091---Seed" fill="rgb(0,0,0)" fill-rule="nonzero" transform="translate(-1)"><path id="Shape" d="m23.1 29.088c0-.5522847-.4477153-1-1-1-4.058 0-7.331.881-9.729 2.618-7 5.072-7.4 18.06-7.352 21.919.00657158.5475928.4523678.9880394 1 .988h.012c.26557233-.0028988.51908294-.1113238.70461745-.3013607.18553452-.1900368.28785102-.4460738.28438255-.7116393-.031-2.575.14-15.652 6.525-20.277 2.05-1.484 4.929-2.237 8.556-2.237.5511142-.00055.997898-.4468866.999-.998z"/><path id="Shape" d="m27.624 51.763c-2.049 1.484-4.924 2.237-8.555 2.237-.5522847 0-1 .4477153-1 1s.4477153 1 1 1c4.058 0 7.331-.881 9.728-2.618.3001693-.2053652.4651727-.5575097.4308892-.9195885-.0342835-.3620789-.2624478-.6769962-.5958272-.8223737-.3333795-.1453775-.7194037-.0982907-1.008062.1229622z"/><path id="Shape" d="m52.487 17.918c.072-3.331-.371-9.825-4.465-13.8-4.464-4.346-11.807-4.264-14.757-4.028-1.22149.07514037-2.1855044 1.06687124-2.226 2.29-.154 2.955-.03 10.3 4.435 14.639 3.564 3.464 8.965 4.111 12.5 4.111.313 0 .606-.006.888-.015.6481584 1.2297246 1.1914181 2.511938 1.624 3.833.1242833.4044035.2083573.8200842.251 1.241-.7962616-.1505224-1.5575562-.447919-2.245-.877l-.383-.238c-.5356676-.3549333-1.0991724-.6659479-1.685-.93-4.0164054-1.8132268-8.7277256-1.0497929-11.966 1.939-.1431553-.5251586-.3311805-1.0370422-.562-1.53-.2661471-.4333802-.8151816-.597973-1.2758511-.3824821-.4606694.2154909-.6862254.74242-.5241489 1.2244821-6.938-1.689-15.826-2.448-22.068 2.076-8.264 5.981-9.066 19.585-9.028 25.155.00949964 2.1448311 1.38590202 4.0446767 3.421 4.722 4.71491006 1.6308448 9.6543555 2.5200934 14.642 2.636 4.259 0 8.6-.844 12.084-3.365 6.48-4.7 8.337-14.068 8.832-20.306.065.08.133.157.189.242.306518.4595009.9274991.583518 1.387.277s.583518-.9274991.277-1.387c-.5688294-.8019825-1.3237593-1.4539675-2.2-1.9-.0465119-.0332682-.0960659-.062063-.148-.086-.429215-.2230825-.8736548-.4155617-1.33-.576.2871794-.1841674.5850364-.3511276.892-.5.7442833-.4002753 1.6007598-.5410274 2.434-.4.6650893.2075133 1.2828303.5439069 1.818.99.247.177.493.351.743.513.8751533.5817002 1.8168684 1.0564186 2.805 1.414 1.1612915.4098326 2.3825528.6240771 3.614.634 2.8343406.081512 5.5148322-1.2869449 7.1111567-3.6304207 1.5963246-2.3434758 1.8883954-5.3388729.7748433-7.9465793-1.1246357-2.6778-3.216446-4.8338748-5.859-6.039zm-15.618-2.333c-3.879-3.772-3.969-10.418-3.833-13.102-.0044082-.10546002.0347882-.20808465.1083771-.28375447.073589-.07566983.175081-.117712.2806229-.11624553.56-.044 1.293-.083 2.139-.083 3.2 0 8 .566 11.064 3.548 3.023 2.939 3.744 7.618 3.85 10.813-2.8645083-4.7992001-7.0234505-8.69404949-12-11.238-.484906-.26454438-1.0924556-.08590599-1.357.39900001s-.085906 1.09245559.399 1.35699999c8.041 4.387 11.086 9.837 12.087 12.2-2.916.182-9.068.074-12.738-3.494zm-6.894 39.415c-7.526 5.449-19.931 2.132-24.919.451-1.22407072-.40578-2.05186828-1.5484305-2.056-2.838-.036-5.261.689-18.086 8.2-23.523 6.253-4.529 15.958-2.949 21.562-1.461.3141837 1.6689402.0853288 3.3946396-.653 4.924-.1546231.3094256-.1383551.6767868.043014.9713335.1813691.2945466.50208.4744452.847986.4756665 1.7339389.0195026 3.4501194.3518305 5.066.981-.324 5.801-1.836 15.484-8.091 20.019zm26.425-25.058c-1.2 2.533-4.5 4.57-8.9 3.064-.837671-.3063127-1.6359428-.7111554-2.378-1.206-.224-.144-.443-.3-.664-.458-.7508945-.6148353-1.6222821-1.0655178-2.558-1.323-1.2643221-.2383446-2.5720651-.044631-3.713.55-.9224863.4590352-1.7902969 1.0205794-2.587 1.674-.416-.068-.814-.124-1.157-.158.3636277-1.1694188.5060608-2.3963786.42-3.618 2.983-3.18 7.145-4.17 10.746-2.495.4989784.227821.9788543.4953477 1.435.8l.4.248c.1.063 2.53 1.522 4.064 1.092.4364934-.1158575.8036975-.410783 1.011-.812.3095587-.9564158.2673574-1.9919451-.119-2.92-.3817096-1.2095935-.8626781-2.3855915-1.438-3.516.213707-.0842394.4138517-.1994743.594-.342l.038-.032c.1912633-.1562035.3560506-.3422645.488-.551 1.9797384 1.0169579 3.5376785 2.6991791 4.4 4.751.7143622 1.683929.6845839 3.5911932-.082 5.252z"/></g></g></svg>