<svg id="_x33_0" enable-background="new 0 0 64 64" height="512" viewBox="0 0 64 64" width="512" xmlns="http://www.w3.org/2000/svg"><g><path d="m19.857 50.485-1.715 1.029c2.058 3.43 5.28 6.014 9.073 7.277l.468.156.633-1.896-.469-.156c-3.34-1.113-6.177-3.389-7.99-6.41z"/><path d="m28.051 52.316c.703 2.109 1.906 4.055 3.478 5.627l.764.764 1.414-1.414-.764-.764c-1.353-1.354-2.389-3.029-2.994-4.846z"/><path d="m62.385 31.418-.758-3.032c-.416-1.665-.627-3.379-.627-5.094v-1.726c0-1.415-1.151-2.566-2.566-2.566-.465 0-.922.127-1.32.366l-1.567.939c-1.939 1.164-4.042 2.002-6.249 2.492l-1.491.331c-5.923 1.317-10.993 4.972-14.119 10.118-3.613-3.912-8.376-6.8-13.875-8.12l-1.361-.326c-.494-.118-.977-.262-1.452-.427v-9.373h3c6.065 0 11-4.935 11-11v-3h-5c-4.867 0-9 3.181-10.445 7.571-1.896-3.322-5.465-5.571-9.555-5.571h-5v3c0 6.065 4.935 11 11 11h3v6.486c-.709-.372-1.398-.785-2.048-1.271l-.993-.745c-.948-.712-2.404-.557-3.179.339-.446.514-.646 1.195-.55 1.87l.039.27c.474 3.317.302 6.648-.511 9.899-.503 2.008-.758 4.079-.758 6.152 0 12.683 10.318 23 23 23 4.264 0 7.961-2.444 9.786-6h2.626c11.352 0 20.588-9.236 20.588-20.589 0-1.682-.207-3.362-.615-4.993zm-36.385-28.418h3v1c0 4.963-4.038 9-9 9h-2.277l.127-.223c1.769-3.095 4.799-5.205 8.314-5.791l-.329-1.973c-3.478.579-6.54 2.447-8.656 5.197.833-4.108 4.471-7.21 8.821-7.21zm-23 3v-1h3c4.35 0 7.988 3.102 8.82 7.211-2.116-2.75-5.178-4.618-8.656-5.197l-.329 1.972c3.515.586 6.545 2.696 8.314 5.791l.128.223h-2.277c-4.962 0-9-4.037-9-9zm35.65 48.457c-.685-3.431-2.364-6.586-4.896-9.118l-.05-.05-1.36 1.468c2.924 2.925 4.556 6.788 4.641 10.909-1.653 2.032-4.169 3.334-6.985 3.334-11.58 0-21-9.421-21-21 0-1.91.235-3.816.698-5.668.876-3.503 1.061-7.092.55-10.668l-.039-.27c-.019-.136.043-.23.082-.275s.123-.119.26-.119c.075 0 .147.024.208.069l.994.745c1.016.761 2.105 1.389 3.248 1.901v3.285 1 3.5c0 1.252-.598 2.448-1.6 3.2-1.503 1.127-2.4 2.922-2.4 4.8v1.5h2v-1.5c0-1.252.598-2.448 1.6-3.2.311-.233.59-.501.846-.787.487 3.253 2.451 6.151 5.312 7.786 1.556.89 2.726 2.316 3.293 4.018l1.897-.633c-.723-2.168-2.214-3.986-4.198-5.121-2.389-1.365-4.019-3.809-4.364-6.538 1.108 1.284 2.628 2.158 4.33 2.442 1.557.26 2.835 1.351 3.334 2.85l1.897-.633c-.374-1.123-1.049-2.088-1.921-2.817l1.46-.584c1.449-.579 3.154-.228 4.254.873l.552.552 1.414-1.414-.551-.552c-1.659-1.66-4.227-2.189-6.411-1.316l-3.056 1.222c-.212-.059-.424-.116-.643-.153-1.542-.257-2.887-1.173-3.69-2.513l-1.356-2.259v-2.723-1-2.545c.327.1.65.209.985.29l1.362.327c11.571 2.777 19.653 13.028 19.653 24.928 0 .853-.127 1.675-.35 2.457zm3.762.543h-1.838c.271-.955.426-1.959.426-3 0-6.424-2.186-12.402-5.934-17.146 2.809-4.979 7.571-8.527 13.174-9.772l1.491-.331c2.417-.537 4.72-1.456 6.844-2.73l1.567-.939c.358-.214.858.07.858.484v1.726c0 1.878.231 3.755.687 5.578l.758 3.033c.368 1.472.555 2.989.555 4.508 0 10.25-8.339 18.589-18.588 18.589z"/><path d="m40.929 37h14.142v2h-14.142z" transform="matrix(.707 -.707 .707 .707 -12.811 45.071)"/><path d="m56.931 34.333c-1.17 7.021-5.342 13.147-11.445 16.81l1.029 1.715c6.606-3.964 11.122-10.596 12.389-18.195l.083-.497-1.973-.33z"/><path d="m50.858 28.01c-4.727.676-9.189 2.907-12.565 6.283l1.414 1.414c3.073-3.072 7.133-5.103 11.435-5.717z"/></g></svg>