<?xml version="1.0" encoding="iso-8859-1"?>
<!-- Generator: Adobe Illustrator 19.0.0, SVG Export Plug-In . SVG Version: 6.00 Build 0)  -->
<svg version="1.1" id="Capa_1" xmlns="http://www.w3.org/2000/svg" xmlns:xlink="http://www.w3.org/1999/xlink" x="0px" y="0px"
	 viewBox="0 0 511.998 511.998" style="enable-background:new 0 0 511.998 511.998;" xml:space="preserve">
<g>
	<g>
		<path d="M163.762,152.488c-6.781-2.63-17.849-2.631-24.674,0c-6.824,2.63-6.861,6.91-0.08,9.541c6.78,2.63,17.849,2.631,24.673,0
			C170.507,159.399,170.542,155.118,163.762,152.488z"/>
	</g>
</g>
<g>
	<g>
		<path d="M210.848,145.996c-2.872-6.25-7.545-6.283-10.419-0.073c-2.872,6.21-2.872,16.348,0,22.6
			c2.873,6.25,7.546,6.283,10.419,0.073S213.72,152.247,210.848,145.996z"/>
	</g>
</g>
<g>
	<g>
		<path d="M259.152,174.679c-2.764-6.251-10.59-13.421-17.447-15.98c-6.856-2.56-10.186,0.444-7.423,6.695
			c2.764,6.251,10.59,13.42,17.447,15.98C258.586,183.934,261.916,180.931,259.152,174.679z"/>
	</g>
</g>
<g>
	<g>
		<path d="M197.056,195.379c-2.764-6.251-10.59-13.421-17.447-15.981c-6.856-2.56-10.187,0.444-7.423,6.696
			c2.763,6.251,10.589,13.42,17.447,15.98C196.49,204.634,199.819,201.63,197.056,195.379z"/>
	</g>
</g>
<g>
	<g>
		<path d="M292.589,158.476c-3.039-6.659-7.517-6.889-9.983-0.515c-2.466,6.374-2.001,16.978,1.037,23.636
			c3.038,6.66,7.516,6.891,9.982,0.516C296.093,175.738,295.627,165.135,292.589,158.476z"/>
	</g>
</g>
<g>
	<g>
		<path d="M272.059,116.204c-6.251,2.764-13.42,10.59-15.98,17.447s0.444,10.187,6.695,7.423s13.421-10.59,15.98-17.447
			C281.314,116.77,278.311,113.44,272.059,116.204z"/>
	</g>
</g>
<g>
	<g>
		<path d="M238.095,112.78c-6.374-2.467-16.978-2.001-23.637,1.037c-6.659,3.037-6.89,7.515-0.514,9.982
			c6.374,2.467,16.977,2.001,23.636-1.036C244.239,119.725,244.469,115.246,238.095,112.78z"/>
	</g>
</g>
<g>
	<g>
		<path d="M102.2,187.752c-6.825,2.531-14.653,9.7-17.448,15.98c-2.795,6.281,0.485,9.332,7.31,6.8
			c6.825-2.531,14.652-9.7,17.447-15.98C112.304,188.271,109.024,185.221,102.2,187.752z"/>
	</g>
</g>
<g>
	<g>
		<path d="M449.018,204.014c-6.78-2.63-17.849-2.631-24.673,0c-6.824,2.631-6.861,6.911-0.081,9.542
			c6.78,2.63,17.849,2.631,24.674,0C455.762,210.925,455.799,206.645,449.018,204.014z"/>
	</g>
</g>
<g>
	<g>
		<path d="M377.211,177.973c-6.78-2.63-17.849-2.631-24.673,0c-6.824,2.631-6.861,6.912-0.081,9.542
			c6.781,2.63,17.849,2.63,24.674,0C383.956,184.884,383.992,180.604,377.211,177.973z"/>
	</g>
</g>
<g>
	<g>
		<path d="M345.993,165.155c-2.764-6.251-10.59-13.42-17.447-15.98c-6.856-2.56-10.187,0.444-7.423,6.695s10.59,13.42,17.447,15.981
			C345.427,174.411,348.756,171.408,345.993,165.155z"/>
	</g>
</g>
<g>
	<g>
		<path d="M415.841,190.3c-2.764-6.251-10.59-13.42-17.447-15.98c-6.856-2.56-10.187,0.444-7.423,6.695
			c2.763,6.251,10.589,13.42,17.447,15.981C415.275,199.556,418.605,196.553,415.841,190.3z"/>
	</g>
</g>
<g>
	<g>
		<path d="M381.874,156.032c-2.764-6.251-10.59-13.42-17.447-15.98c-6.856-2.56-10.187,0.444-7.423,6.695
			c2.763,6.252,10.589,13.421,17.447,15.981C381.307,165.288,384.637,162.284,381.874,156.032z"/>
	</g>
</g>
<g>
	<g>
		<path d="M504.109,231.229c-5.882-7.781-14.226-12.88-23.538-14.564l-1.172-12.697c-0.868-9.4-8.749-16.525-18.129-16.525
			c-0.099,0-0.196,0.001-0.296,0.003c-0.655-4.59-2.203-9.721-7.525-14.5c-5.465-4.777-10.907-5.63-15.701-5.636
			c-0.523-2.896-1.241-5.266-2.862-8.068c-6.044-10.144-15.314-11.323-21.661-11.032c-1.231-4.78-3.45-9.909-9.322-13.855
			c-5.89-4.07-11.359-4.295-16.365-3.68c-1.458-4.443-4.066-9.626-10.27-13.252c-6.224-3.66-11.652-3.501-16.536-2.564
			c-4.048-11.352-16.274-17.498-27.793-14.012c-0.015,0.004-0.028,0.008-0.042,0.012c-2.049-4.21-5.108-8.59-11.409-11.437
			c-0.169-0.085-0.341-0.163-0.517-0.237c-7.105-2.942-12.989-1.647-17.196-0.106c-2.715-4.357-6.443-8.513-13.636-10.472
			c-0.052-0.014-0.104-0.028-0.156-0.041c-7.489-1.873-13.022,0.102-17.319,2.498c-0.086-0.098-0.172-0.194-0.258-0.293
			c-0.024-0.027-0.049-0.055-0.072-0.082c-6.258-6.897-16.66-9.06-25.293-5.256c-0.044,0.02-0.089,0.039-0.133,0.06
			c-3.358,1.555-5.469,3.307-7.533,5.557c-4.477-2.514-9.787-4.366-17.288-2.502c-0.053,0.013-0.105,0.027-0.156,0.041
			c-7.19,1.949-10.926,6.109-13.65,10.471c-4.439-1.628-10.047-2.769-17.06,0.044c-6.715,2.789-9.924,7.35-12.062,11.742
			c-4.82-1.272-10.234-1.79-16.685,1.42c-0.039,0.021-0.078,0.039-0.117,0.06c-6.507,3.378-9.29,8.119-11.044,12.552
			c-2.949-0.579-5.442-0.775-8.609-0.252c-11.682,1.982-16.112,10.224-18.122,16.283c-4.924-0.552-10.517-0.295-16.271,3.763
			c-5.915,4.058-8.093,9.2-9.274,13.97c-4.665-0.227-10.426,0.348-16.014,4.807c-5.611,4.448-7.438,9.551-8.343,14.437
			c-8.731-0.266-16.893,4.59-20.878,12.412c-1.438,2.824-1.918,4.968-2.223,7.282c-4.494-0.308-8.881,1.113-12.414,4.018
			c-3.733,3.07-6.129,7.592-6.573,12.408c-0.007,0.078-0.013,0.155-0.018,0.234L31.81,216.6
			c-9.465,1.617-17.959,6.751-23.929,14.637c-7.394,9.77-9.727,22.142-6.397,33.946c13.674,48.471,50.615,90.733,104.231,119.397
			c1.137,14.287,7.447,27.532,17.942,37.533c11.035,10.518,25.473,16.311,40.653,16.311h183.405
			c30.791,0,56.129-23.736,58.587-53.827c53.545-28.621,90.469-70.824,104.187-119.227
			C513.855,253.491,511.53,241.046,504.109,231.229z M48.047,205.359c0.084-0.69,0.433-1.333,0.968-1.772
			c0.334-0.276,0.893-0.596,1.666-0.509l0.573,0.057c1.118,0.112,2.809,0.281,5.372,0.447c1.929,0.124,3.836-0.477,5.345-1.685
			c0.486-0.389,0.984-0.794,1.496-1.217c1.49-1.231,2.469-2.976,2.741-4.891c0.269-1.892,0.428-3.355,0.556-4.532
			c0.296-2.704,0.335-2.887,0.857-3.912c1.269-2.49,3.832-4.041,6.574-3.944l5.638,0.2c1.936,0.07,3.81-0.582,5.281-1.828
			l1.423-1.204c1.467-1.239,2.421-2.978,2.68-4.88l0.195-1.477c0.723-5.538,1.082-6.888,3.259-8.615
			c2.159-1.723,3.988-1.694,8.676-1.173c0.64,0.07,1.277,0.142,1.911,0.202c1.318,0.128,2.627-0.093,3.82-0.61
			c0.137,0.841,0.411,1.771,0.865,2.799c2.764,6.251,10.59,13.42,17.447,15.98c6.856,2.56,10.187-0.444,7.423-6.695
			c-2.764-6.251-10.59-13.42-17.447-15.98c-1.087-0.406-2.074-0.657-2.973-0.792c0.332-0.646,0.575-1.339,0.716-2.065l0.283-1.495
			c0.988-5.279,1.479-6.783,3.768-8.353c2.196-1.548,3.714-1.485,9.259-0.538l1.298,0.22c1.901,0.314,3.85-0.087,5.469-1.128
			l1.569-1.008c1.62-1.044,2.794-2.651,3.293-4.512c0.126-0.466,0.252-0.977,0.387-1.521c1.492-6.038,2.752-8.304,6.814-8.993
			c1.398-0.233,2.253-0.067,6.926,1.053l1.12,0.269c1.875,0.445,3.851,0.179,5.542-0.752c0.246-0.137,1.465-0.794,1.573-0.852
			c1.706-0.917,3.009-2.44,3.65-4.274c0.223-0.638,0.434-1.266,0.64-1.88c1.539-4.579,2.109-5.984,4.733-7.363
			c2.471-1.215,3.871-0.955,9.173,0.759l1.33,0.427c1.902,0.604,3.873,0.495,5.667-0.381c0.216-0.101,1.466-0.672,1.59-0.729
			c1.776-0.802,3.185-2.243,3.947-4.036c0.2-0.472,0.394-0.937,0.585-1.399c1.945-4.667,2.691-6.197,5.348-7.302
			c2.783-1.116,4.515-0.468,8.508,1.24l0.813,0.348c1.095,0.463,2.281,0.672,3.473,0.601l2.847-0.166
			c2.674-0.154,5.079-1.678,6.362-4.03l0.46-0.848c2.753-5.074,3.623-6.271,6.363-7.031c3.095-0.75,4.433-0.004,8.96,2.904
			l0.874,0.561c1.601,1.022,3.523,1.422,5.397,1.122l1.878-0.301c1.867-0.3,3.558-1.271,4.759-2.732l0.537-0.653
			c2.944-3.588,3.453-4.137,5.033-4.878c2.141-0.915,5.458-0.707,7.468,1.476c1.221,1.387,2.35,2.713,3.449,4.053
			c1.201,1.466,2.897,2.44,4.767,2.741l1.868,0.3c1.877,0.308,3.803-0.095,5.407-1.119l1.075-0.692
			c4.167-2.694,5.659-3.523,8.758-2.77c2.743,0.764,3.61,1.957,6.349,7.008l0.474,0.873c0.939,1.723,2.521,3.035,4.381,3.654
			c0.871,0.29,1.774,0.428,2.707,0.394l3.466-0.113c0.944-0.031,1.875-0.235,2.747-0.6l0.707-0.298
			c3.381-1.435,5.177-2.1,7.807-1.101c0.053,0.024,0.106,0.048,0.158,0.07c2.737,1.184,3.467,2.686,5.366,7.257
			c0.199,0.479,0.4,0.964,0.608,1.453c0.755,1.781,2.149,3.215,3.908,4.021l1.697,0.78c1.756,0.807,3.751,0.927,5.592,0.342
			c1.737-0.553,3.482-1.099,5.277-1.629c4.013-1.215,7.661,1.326,8.74,4.366l1.88,5.323c0.62,1.752,1.881,3.242,3.493,4.165
			c0.123,0.078,0.327,0.212,0.694,0.454c0.901,0.596,1.917,0.997,2.982,1.178l0.583,0.101c1.058,0.191,2.143,0.156,3.188-0.096
			l1.337-0.328c5.369-1.327,6.743-1.478,9.143-0.066c2.394,1.399,3.024,3.118,4.212,7.675c0.161,0.623,0.324,1.241,0.493,1.851
			c0.516,1.858,1.705,3.457,3.335,4.485l1.57,0.991c1.631,1.031,3.587,1.417,5.489,1.083l1.27-0.228c5.556-1,7.079-1.077,9.377,0.51
			c2.212,1.487,2.721,3.004,3.776,8.344l0.281,1.413c0.384,1.885,1.454,3.559,3.003,4.7l1.471,1.08
			c0.791,0.581,1.587,0.979,2.535,1.228c0.047,0.013,0.133,0.036,0.179,0.049c0.899,0.236,1.834,0.305,2.757,0.21
			c0.478-0.05,0.998-0.113,1.552-0.182c6.154-0.759,8.714-0.397,10.785,3.078c0.751,1.298,0.894,2.064,1.547,6.806l0.172,1.245
			c0.265,1.898,1.223,3.631,2.689,4.865l1.433,1.204c1.478,1.242,3.378,1.897,5.296,1.811c0.652-0.025,1.294-0.059,1.928-0.092
			c4.723-0.241,6.468-0.233,8.59,1.622c2.132,1.914,2.348,3.355,2.77,8.06c0.069,0.776,0.141,1.569,0.229,2.382
			c0.206,1.923,1.123,3.7,2.571,4.981l1.391,1.225c1.454,1.275,3.305,1.943,5.271,1.921c1.942-0.039,3.883-0.085,5.781-0.168
			c1.405-0.096,2.648,1.012,2.78,2.442l0.557,6.04c0.152,1.66,0.308,3.345,0.424,4.608h-75.34c-0.272-2.993-0.931-5.855-1.998-8.177
			c-2.872-6.25-7.545-6.283-10.417-0.073c-1.079,2.333-1.737,5.224-2.002,8.252h-20.612c0.329-1.274,0.095-2.979-0.82-5.051
			c-2.764-6.251-10.59-13.42-17.447-15.98c-6.856-2.56-10.187,0.444-7.423,6.695c2.303,5.212,8.125,11.051,13.971,14.336h-36.687
			c1.582-6.404,0.912-15.368-1.774-21.253c-3.039-6.659-7.517-6.89-9.983-0.515c-2.248,5.81-2.053,15.122,0.297,21.768h-16.96
			c0.736-1.312,0.641-3.315-0.49-5.876c-2.764-6.251-10.59-13.421-17.447-15.98c-6.857-2.56-10.187,0.444-7.423,6.695
			c2.512,5.683,9.208,12.113,15.558,15.161h-17.542c1.511-2.238,0.035-4.716-4.473-6.464c-6.781-2.63-17.849-2.631-24.674,0
			c-4.539,1.749-6.056,4.227-4.582,6.465h-72.609c0.216-1.236-0.053-2.834-0.895-4.738c-2.764-6.251-10.59-13.421-17.447-15.98
			c-6.856-2.56-10.187,0.444-7.423,6.695c2.231,5.046,7.762,10.688,13.418,14.023H47.385L48.047,205.359z M495.559,261.142
			c-2.07,7.303-4.736,14.454-7.956,21.431H144.29c-4.285,0-7.757,3.472-7.757,7.757c0,4.285,3.472,7.757,7.757,7.757h335.061
			c-7.809,12.885-17.624,25.026-29.251,36.2H164.634c-4.285,0-7.757,3.472-7.757,7.757c0,4.285,3.472,7.757,7.757,7.757h267.324
			c-10.643,8.131-22.381,15.578-35.113,22.234H183.596c-4.285,0-7.757,3.472-7.757,7.757s3.472,7.757,7.757,7.757h206.671
			c-3.679,20.083-21.354,35.361-42.553,35.361H164.309c-20.94,0-38.873-15.38-42.565-35.361h30.823c4.285,0,7.757-3.472,7.757-7.757
			s-3.472-7.757-7.757-7.757h-37.363c-12.735-6.658-24.477-14.105-35.123-22.234h29.734c4.285,0,7.757-3.472,7.757-7.757
			c0-4.285-3.472-7.757-7.757-7.757H61.934c-11.632-11.175-21.449-23.314-29.259-36.201h51.08c4.285,0,7.757-3.472,7.757-7.757
			s-3.472-7.757-7.757-7.757H24.419c-3.245-7.029-5.929-14.237-8.006-21.598c-1.999-7.085-0.601-14.509,3.835-20.37
			c4.348-5.745,10.925-9.039,18.047-9.039h435.431c7.109,0,13.672,3.288,18.005,9.02
			C496.193,246.489,497.59,253.982,495.559,261.142z"/>
	</g>
</g>
<g>
</g>
<g>
</g>
<g>
</g>
<g>
</g>
<g>
</g>
<g>
</g>
<g>
</g>
<g>
</g>
<g>
</g>
<g>
</g>
<g>
</g>
<g>
</g>
<g>
</g>
<g>
</g>
<g>
</g>
</svg>
