<svg id="Layer_1" enable-background="new 0 0 512 512" height="512" viewBox="0 0 512 512" width="512" xmlns="http://www.w3.org/2000/svg"><path d="m507.798 244.545c-2.847-2.968-6.781-4.646-10.894-4.646h-1.669l-157.447-228.208c-2.818-4.084-7.463-6.523-12.425-6.523s-9.607 2.439-12.425 6.523l-57.963 84.013-57.385-83.959c-2.814-4.116-7.477-6.577-12.462-6.577-4.986 0-9.649 2.461-12.462 6.577l-155.943 228.154h-1.627c-4.113 0-8.047 1.678-10.894 4.646s-4.36 6.969-4.189 11.078c2.151 51.619 29.586 98.424 73.554 125.841 6.157 30.937 21.619 59.351 44.822 81.728 29.182 28.142 67.421 43.641 107.675 43.641h56.622c40.254 0 78.493-15.499 107.675-43.641 22.642-21.834 37.919-49.416 44.366-79.481 21.588-12.658 39.999-30.451 53.399-51.678 14.482-22.943 22.733-49.365 23.861-76.41.171-4.109-1.342-8.11-4.189-11.078zm-383.968 97.246 130.545-192.719 130.545 192.719zm201.533-294.947 133.193 193.054h-106.191l-79.363-117.161zm-140.236.17 51.187 74.889-79.928 117.995h-103.094zm-153.303 223.076h104.11l-48.57 71.702h-1.587c-3.794 0-7.425 1.443-10.202 3.994-23.225-19.25-38.741-46.028-43.751-75.696zm250.862 206.552h-56.622c-62.063 0-113.613-44.846-123.577-104.66h303.777c-9.965 59.814-61.515 104.66-123.578 104.66zm151.889-129.387c-.23-.277-.457-.556-.708-.818-2.847-2.968-6.781-4.646-10.894-4.646h-1.588l-48.569-71.702h107.33c-5.209 30.268-21.576 57.885-45.571 77.166z"/></svg>