<?xml version="1.0" encoding="iso-8859-1"?>
<!-- Generator: Adobe Illustrator 19.0.0, SVG Export Plug-In . SVG Version: 6.00 Build 0)  -->
<svg version="1.1" id="Capa_1" xmlns="http://www.w3.org/2000/svg" xmlns:xlink="http://www.w3.org/1999/xlink" x="0px" y="0px"
	 viewBox="0 0 480.001 480.001" style="enable-background:new 0 0 480.001 480.001;" xml:space="preserve">
<g>
	<g>
		<path d="M464.001,181.173h16v-16h-15.496c-48.044-3.559-95.694,10.881-133.68,40.512l-33.656-14.4
			c-15.515-6.685-32.234-10.126-49.128-10.112c-27.724,0.044-54.651,9.284-76.56,26.272l-11.28,8.8l64.6-123.408l8.512,12.8
			c1.496,2.225,4.007,3.552,6.688,3.536h80c4.418,0,8-3.582,8-8v-88c0-4.418-3.582-8-8-8h-104c-1.64,0.001-3.241,0.507-4.584,1.448
			l-160,112c-1.407,0.975-2.462,2.378-3.008,4l-48,144c-0.956,2.875-0.207,6.043,1.936,8.184l120,120
			c1.496,1.509,3.531,2.361,5.656,2.368h260.688l77.656,77.656l11.312-11.312l-80-80c-1.5-1.5-3.534-2.344-5.656-2.344h-24v-180.28
			C397.663,185.855,430.814,179.045,464.001,181.173z M131.313,381.173L17.153,267.005l45.6-136.8L218.521,21.173h93.48v72h-67.72
			l-13.6-20.44c-1.562-2.371-4.27-3.728-7.104-3.56c-2.821,0.15-5.354,1.777-6.664,4.28l-88,168
			c-2.049,3.915-0.536,8.749,3.378,10.798c2.777,1.453,6.147,1.151,8.622-0.774l40.392-31.416
			c31.376-23.942,73.147-29.313,109.56-14.088l26.784,11.472c-4.156,4.075-8.097,8.364-11.808,12.848l-8,9.808l12.384,10.144
			l8-9.824c9.678-11.701,21.065-21.877,33.776-30.184v170.936H131.313z"/>
	</g>
</g>
<g>
	<g>
		<path d="M209.945,317.173c-19.622,0.055-38.451-7.743-52.288-21.656l-11.312,11.312c16.833,16.92,39.733,26.406,63.6,26.344
			h54.056v-16H209.945z"/>
	</g>
</g>
<g>
</g>
<g>
</g>
<g>
</g>
<g>
</g>
<g>
</g>
<g>
</g>
<g>
</g>
<g>
</g>
<g>
</g>
<g>
</g>
<g>
</g>
<g>
</g>
<g>
</g>
<g>
</g>
<g>
</g>
</svg>
