<?xml version="1.0" encoding="iso-8859-1"?>
<!-- Generator: Adobe Illustrator 19.0.0, SVG Export Plug-In . SVG Version: 6.00 Build 0)  -->
<svg version="1.1" id="Capa_1" xmlns="http://www.w3.org/2000/svg" xmlns:xlink="http://www.w3.org/1999/xlink" x="0px" y="0px"
	 viewBox="0 0 512 512" style="enable-background:new 0 0 512 512;" xml:space="preserve">
<g>
	<g>
		<path d="M443.733,426.669H8.533c-4.71,0-8.533,3.814-8.533,8.533c0,32.93,26.795,59.733,59.733,59.733h332.8
			c32.93,0,59.733-26.795,59.733-59.733C452.267,430.484,448.452,426.669,443.733,426.669z M392.533,477.869h-332.8
			c-20.608,0-37.845-14.677-41.805-34.133h416.41C430.379,463.184,413.141,477.869,392.533,477.869z"/>
	</g>
</g>
<g>
	<g>
		<path d="M418.133,230.403h-384c-4.71,0-8.533,3.823-8.533,8.533v34.133c0,105.626,85.342,166.588,88.977,169.122
			c1.434,1.007,3.14,1.544,4.89,1.544H332.8c1.749,0,3.456-0.538,4.89-1.544c3.635-2.543,88.977-63.497,88.977-169.122v-34.133
			C426.667,234.226,422.852,230.403,418.133,230.403z M409.6,273.069c0,87.842-66.935,143.778-79.642,153.6h-207.65
			c-12.715-9.822-79.642-65.758-79.642-153.6v-25.6H409.6V273.069z"/>
	</g>
</g>
<g>
	<g>
		<path d="M435.2,247.469h-17.067v17.067H435.2c32.93,0,59.733,26.803,59.733,59.733c0,32.93-26.803,59.733-59.733,59.733h-59.733
			v17.067H435.2c42.351,0,76.8-34.449,76.8-76.8S477.551,247.469,435.2,247.469z"/>
	</g>
</g>
<g>
	<g>
		<path d="M435.2,281.603h-17.067v17.067H435.2c14.114,0,25.6,11.486,25.6,25.6s-11.486,25.6-25.6,25.6h-42.667v17.067H435.2
			c23.526,0,42.667-19.14,42.667-42.667C477.867,300.743,458.726,281.603,435.2,281.603z"/>
	</g>
</g>
<g>
	<g>
		<path d="M193.058,292.005l-42.667-34.133c-3.115-2.483-7.543-2.483-10.658,0l-42.667,34.133c-2.022,1.621-3.2,4.07-3.2,6.665v76.8
			c0,4.719,3.823,8.533,8.533,8.533h85.333c4.71,0,8.533-3.814,8.533-8.533v-76.8C196.267,296.084,195.089,293.626,193.058,292.005z
			 M179.2,366.936h-68.267v-64.171l34.133-27.307l34.133,27.307V366.936z"/>
	</g>
</g>
<g>
	<g>
		<path d="M179.2,170.669c-23.526,0-42.667,19.14-42.667,42.667v51.2H153.6v-51.2c0-14.114,11.486-25.6,25.6-25.6
			s25.6,11.486,25.6,25.6v25.6h17.067v-25.6C221.867,189.81,202.726,170.669,179.2,170.669z"/>
	</g>
</g>
<g>
	<g>
		<path d="M178.278,99.783c12.664-12.749,12.595-33.434-0.102-46.054c-6.042-6.101-6.042-16.026,0-22.118
			c3.319-3.345,3.294-8.747-0.051-12.066c-3.345-3.328-8.755-3.302-12.066,0.051c-12.612,12.723-12.612,33.425,0.043,46.191
			c6.067,6.042,6.101,15.889-0.043,22.076c-12.621,12.723-12.621,33.425,0,46.148c1.664,1.681,3.866,2.526,6.059,2.526
			c2.167,0,4.343-0.819,6.007-2.475c3.345-3.319,3.371-8.721,0.051-12.066C172.134,115.902,172.134,105.978,178.278,99.783z"/>
	</g>
</g>
<g>
	<g>
		<path d="M289.203,99.8c6.135-6.178,9.506-14.379,9.481-23.083c-0.026-8.713-3.439-16.887-9.574-22.98
			c-6.042-6.101-6.042-16.026,0-22.118c3.319-3.354,3.302-8.755-0.051-12.075c-3.354-3.311-8.755-3.294-12.066,0.051
			c-12.612,12.723-12.612,33.425,0.043,46.191c2.944,2.935,4.565,6.827,4.582,10.974c0.017,4.147-1.596,8.055-4.625,11.102
			c-12.621,12.723-12.621,33.425,0,46.148c1.664,1.681,3.857,2.526,6.059,2.526c2.176,0,4.344-0.819,6.008-2.449
			c3.354-3.328,3.371-8.721,0.051-12.075C283.068,115.911,283.068,105.987,289.203,99.8z"/>
	</g>
</g>
<g>
	<g>
		<path d="M235.008,99.877c12.621-12.723,12.621-33.425,0-46.148c-3.311-3.345-8.713-3.371-12.066-0.051
			c-3.345,3.319-3.371,8.721-0.051,12.066c6.05,6.093,6.05,16.026,0.043,22.076c-12.74,12.663-12.809,33.348-0.017,46.217
			c1.655,1.655,3.806,2.475,5.956,2.475c2.185,0,4.369-0.836,6.042-2.509c3.336-3.328,3.302-8.772-0.017-12.109
			C228.864,115.809,228.898,105.953,235.008,99.877z"/>
	</g>
</g>
<g>
	<g>
		<path d="M340.403,99.792c6.135-6.178,9.506-14.379,9.481-23.083c-0.026-8.713-3.439-16.887-9.617-23.023
			c-3.345-3.319-8.747-3.302-12.066,0.034c-3.328,3.345-3.311,8.747,0.034,12.066c2.944,2.935,4.565,6.827,4.582,10.974
			c0.017,4.147-1.596,8.055-4.625,11.102c-12.621,12.723-12.621,33.425,0,46.148c1.664,1.681,3.857,2.526,6.059,2.526
			c2.176,0,4.344-0.819,6.007-2.458c3.354-3.328,3.371-8.721,0.051-12.075C334.268,115.902,334.268,105.978,340.403,99.792z"/>
	</g>
</g>
<g>
</g>
<g>
</g>
<g>
</g>
<g>
</g>
<g>
</g>
<g>
</g>
<g>
</g>
<g>
</g>
<g>
</g>
<g>
</g>
<g>
</g>
<g>
</g>
<g>
</g>
<g>
</g>
<g>
</g>
</svg>
