<svg xmlns="http://www.w3.org/2000/svg" viewBox="0 0 34.84 34.84"><defs><style>.cls-1{fill:#fff;}</style></defs><g id="Capa_2" data-name="Capa 2"><g id="Capa_1-2" data-name="Capa 1"><path class="cls-1" d="M34.83,16.54A17.11,17.11,0,0,0,.65,16.22c0,.25,0,.5,0,.75a16.73,16.73,0,0,0,2.46,8.76L0,34.84l9.47-3A17.13,17.13,0,0,0,34.84,17C34.84,16.83,34.83,16.68,34.83,16.54ZM17.74,31.24a14.41,14.41,0,0,1-7.92-2.36L4.3,30.64l1.8-5.3A14.1,14.1,0,0,1,3.36,17a12.5,12.5,0,0,1,.07-1.38,14.39,14.39,0,0,1,28.64.27c0,.36,0,.73,0,1.11A14.35,14.35,0,0,1,17.74,31.24Z"/><path class="cls-1" d="M25.57,20.4c-.42-.21-2.48-1.22-2.87-1.36s-.66-.21-.94.21-1.08,1.35-1.33,1.63-.49.31-.91.11a11.62,11.62,0,0,1-3.37-2.07A12.43,12.43,0,0,1,13.82,16c-.24-.42,0-.64.18-.85s.42-.48.63-.73a1.4,1.4,0,0,0,.16-.2,5.46,5.46,0,0,0,.26-.49A.78.78,0,0,0,15,13c-.11-.21-.95-2.26-1.29-3.09s-.7-.69-1-.69-.52,0-.8,0a1.55,1.55,0,0,0-1.12.53,4.64,4.64,0,0,0-1.47,3.46,5.14,5.14,0,0,0,.22,1.42,9.13,9.13,0,0,0,1.5,2.88c.2.28,2.9,4.62,7.16,6.29s4.26,1.11,5,1a4.24,4.24,0,0,0,2.83-2,3.39,3.39,0,0,0,.24-2C26.27,20.71,26,20.6,25.57,20.4Z"/></g></g></svg>